<svg xmlns="http://www.w3.org/2000/svg" xmlns:xlink="http://www.w3.org/1999/xlink" width="1600" zoomAndPan="magnify" viewBox="0 0 1200 675.000002" height="900" preserveAspectRatio="xMidYMid meet" version="1.0"><defs><g/><clipPath id="2cdcc478fa"><path d="M 41.191406 430.511719 L 535.640625 430.511719 L 535.640625 485.496094 L 41.191406 485.496094 Z M 41.191406 430.511719 " clip-rule="nonzero"/></clipPath><clipPath id="974ca069d2"><path d="M 600 118.011719 L 1094.449219 118.011719 L 1094.449219 172.996094 L 600 172.996094 Z M 600 118.011719 " clip-rule="nonzero"/></clipPath></defs><g clip-path="url(#2cdcc478fa)"><path fill="#000000" d="M 41.191406 430.511719 L 535.617188 430.511719 L 535.617188 485.496094 L 41.191406 485.496094 Z M 41.191406 430.511719 " fill-opacity="1" fill-rule="nonzero"/></g><g clip-path="url(#974ca069d2)"><path fill="#000000" d="M 600 118.011719 L 1094.425781 118.011719 L 1094.425781 172.996094 L 600 172.996094 Z M 600 118.011719 " fill-opacity="1" fill-rule="nonzero"/></g><g fill="#000000" fill-opacity="1"><g transform="translate(86.603918, 332.316932)"><g><path d="M 2.875 0 L 91.640625 -223.5 L 141.453125 -223.5 L 230.21875 0 L 175.9375 0 L 160.921875 -38.640625 L 72.15625 -38.640625 L 57.15625 0 Z M 85.25 -78.546875 L 148.15625 -78.546875 L 116.546875 -160.28125 Z M 85.25 -78.546875 "/></g></g></g><g fill="#000000" fill-opacity="1"><g transform="translate(385.787342, 332.316932)"><g><path d="M 26.828125 0 L 26.828125 -223.5 L 77.59375 -223.5 L 77.59375 0 Z M 26.828125 0 "/></g></g></g><g fill="#000000" fill-opacity="1"><g transform="translate(607.574361, 484.040926)"><g><path d="M 118.140625 4.46875 C 98.765625 4.46875 82.101562 0.582031 68.15625 -7.1875 C 54.21875 -14.957031 43.46875 -26.023438 35.90625 -40.390625 C 28.351562 -54.753906 24.578125 -71.941406 24.578125 -91.953125 L 24.578125 -223.5 L 75.359375 -223.5 L 75.359375 -95.46875 C 75.359375 -60.988281 89.617188 -43.75 118.140625 -43.75 C 146.660156 -43.75 160.921875 -60.988281 160.921875 -95.46875 L 160.921875 -223.5 L 211.6875 -223.5 L 211.6875 -91.953125 C 211.6875 -71.941406 207.910156 -54.753906 200.359375 -40.390625 C 192.804688 -26.023438 182.054688 -14.957031 168.109375 -7.1875 C 154.171875 0.582031 137.515625 4.46875 118.140625 4.46875 Z M 118.140625 4.46875 "/></g></g></g><g fill="#000000" fill-opacity="1"><g transform="translate(909.950706, 484.040926)"><g><path d="M 26.828125 0 L 26.828125 -223.5 L 126.765625 -223.5 C 149.535156 -223.5 167.625 -218.070312 181.03125 -207.21875 C 194.445312 -196.363281 201.15625 -181.785156 201.15625 -163.484375 C 201.15625 -153.046875 198.8125 -143.570312 194.125 -135.0625 C 189.445312 -126.550781 182.851562 -119.847656 174.34375 -114.953125 C 184.976562 -110.265625 193.222656 -103.34375 199.078125 -94.1875 C 204.929688 -85.039062 207.859375 -74.503906 207.859375 -62.578125 C 207.859375 -50.023438 204.664062 -39.0625 198.28125 -29.6875 C 191.894531 -20.320312 183.007812 -13.03125 171.625 -7.8125 C 160.238281 -2.601562 146.988281 0 131.875 0 Z M 76.953125 -40.234375 L 124.203125 -40.234375 C 134.210938 -40.234375 141.984375 -42.570312 147.515625 -47.25 C 153.046875 -51.9375 155.8125 -58.535156 155.8125 -67.046875 C 155.8125 -75.566406 153.046875 -82.164062 147.515625 -86.84375 C 141.984375 -91.53125 134.210938 -93.875 124.203125 -93.875 L 76.953125 -93.875 Z M 76.953125 -132.515625 L 119.09375 -132.515625 C 128.882812 -132.515625 136.390625 -134.75 141.609375 -139.21875 C 146.828125 -143.6875 149.4375 -149.960938 149.4375 -158.046875 C 149.4375 -166.140625 146.828125 -172.367188 141.609375 -176.734375 C 136.390625 -181.097656 128.882812 -183.28125 119.09375 -183.28125 L 76.953125 -183.28125 Z M 76.953125 -132.515625 "/></g></g></g><g fill="#101123" fill-opacity="1"><g transform="translate(50.016472, 618.429888)"><g><path d="M 22.25 0.640625 C 18.445312 0.640625 15.007812 -0.179688 11.9375 -1.828125 C 8.875 -3.484375 6.460938 -5.773438 4.703125 -8.703125 C 2.953125 -11.628906 2.078125 -14.9375 2.078125 -18.625 C 2.078125 -22.3125 2.953125 -25.617188 4.703125 -28.546875 C 6.460938 -31.472656 8.875 -33.757812 11.9375 -35.40625 C 15.007812 -37.0625 18.460938 -37.890625 22.296875 -37.890625 C 25.523438 -37.890625 28.441406 -37.320312 31.046875 -36.1875 C 33.660156 -35.050781 35.851562 -33.421875 37.625 -31.296875 L 32.09375 -26.1875 C 29.570312 -29.09375 26.445312 -30.546875 22.71875 -30.546875 C 20.414062 -30.546875 18.359375 -30.039062 16.546875 -29.03125 C 14.742188 -28.019531 13.332031 -26.609375 12.3125 -24.796875 C 11.300781 -22.984375 10.796875 -20.925781 10.796875 -18.625 C 10.796875 -16.320312 11.300781 -14.265625 12.3125 -12.453125 C 13.332031 -10.640625 14.742188 -9.226562 16.546875 -8.21875 C 18.359375 -7.207031 20.414062 -6.703125 22.71875 -6.703125 C 26.445312 -6.703125 29.570312 -8.175781 32.09375 -11.125 L 37.625 -6.015625 C 35.851562 -3.847656 33.65625 -2.195312 31.03125 -1.0625 C 28.40625 0.0703125 25.476562 0.640625 22.25 0.640625 Z M 22.25 0.640625 "/></g></g></g><g fill="#101123" fill-opacity="1"><g transform="translate(127.767651, 618.429888)"><g><path d="M 29.59375 -19.21875 L 37.46875 -19.21875 L 37.46875 -4.09375 C 35.445312 -2.570312 33.101562 -1.398438 30.4375 -0.578125 C 27.78125 0.234375 25.101562 0.640625 22.40625 0.640625 C 18.539062 0.640625 15.0625 -0.179688 11.96875 -1.828125 C 8.882812 -3.484375 6.460938 -5.773438 4.703125 -8.703125 C 2.953125 -11.628906 2.078125 -14.9375 2.078125 -18.625 C 2.078125 -22.3125 2.953125 -25.617188 4.703125 -28.546875 C 6.460938 -31.472656 8.898438 -33.757812 12.015625 -35.40625 C 15.140625 -37.0625 18.65625 -37.890625 22.5625 -37.890625 C 25.820312 -37.890625 28.78125 -37.335938 31.4375 -36.234375 C 34.101562 -35.140625 36.34375 -33.546875 38.15625 -31.453125 L 32.625 -26.34375 C 29.957031 -29.144531 26.742188 -30.546875 22.984375 -30.546875 C 20.609375 -30.546875 18.5 -30.046875 16.65625 -29.046875 C 14.8125 -28.054688 13.375 -26.65625 12.34375 -24.84375 C 11.3125 -23.039062 10.796875 -20.96875 10.796875 -18.625 C 10.796875 -16.320312 11.3125 -14.265625 12.34375 -12.453125 C 13.375 -10.640625 14.800781 -9.226562 16.625 -8.21875 C 18.457031 -7.207031 20.546875 -6.703125 22.890625 -6.703125 C 25.367188 -6.703125 27.601562 -7.234375 29.59375 -8.296875 Z M 29.59375 -19.21875 "/></g></g></g><g fill="#101123" fill-opacity="1"><g transform="translate(207.540658, 618.429888)"><g><path d="M 20.546875 -37.25 C 23.835938 -37.25 26.695312 -36.695312 29.125 -35.59375 C 31.5625 -34.5 33.4375 -32.941406 34.75 -30.921875 C 36.0625 -28.898438 36.71875 -26.503906 36.71875 -23.734375 C 36.71875 -21.003906 36.0625 -18.617188 34.75 -16.578125 C 33.4375 -14.535156 31.5625 -12.972656 29.125 -11.890625 C 26.695312 -10.804688 23.835938 -10.265625 20.546875 -10.265625 L 13.03125 -10.265625 L 13.03125 0 L 4.421875 0 L 4.421875 -37.25 Z M 20.0625 -17.296875 C 22.65625 -17.296875 24.625 -17.851562 25.96875 -18.96875 C 27.320312 -20.09375 28 -21.679688 28 -23.734375 C 28 -25.828125 27.320312 -27.429688 25.96875 -28.546875 C 24.625 -29.671875 22.65625 -30.234375 20.0625 -30.234375 L 13.03125 -30.234375 L 13.03125 -17.296875 Z M 20.0625 -17.296875 "/></g></g></g><g fill="#101123" fill-opacity="1"><g transform="translate(285.238594, 618.429888)"><g><path d="M 28.953125 -7.984375 L 11.65625 -7.984375 L 8.359375 0 L -0.484375 0 L 16.125 -37.25 L 24.640625 -37.25 L 41.296875 0 L 32.25 0 Z M 26.234375 -14.53125 L 20.328125 -28.796875 L 14.421875 -14.53125 Z M 26.234375 -14.53125 "/></g></g></g><g fill="#101123" fill-opacity="1"><g transform="translate(364.745586, 618.429888)"><g/></g></g><g fill="#101123" fill-opacity="1"><g transform="translate(418.553442, 618.429888)"><g><path d="M 22.25 0.640625 C 18.445312 0.640625 15.007812 -0.179688 11.9375 -1.828125 C 8.875 -3.484375 6.460938 -5.773438 4.703125 -8.703125 C 2.953125 -11.628906 2.078125 -14.9375 2.078125 -18.625 C 2.078125 -22.3125 2.953125 -25.617188 4.703125 -28.546875 C 6.460938 -31.472656 8.875 -33.757812 11.9375 -35.40625 C 15.007812 -37.0625 18.460938 -37.890625 22.296875 -37.890625 C 25.523438 -37.890625 28.441406 -37.320312 31.046875 -36.1875 C 33.660156 -35.050781 35.851562 -33.421875 37.625 -31.296875 L 32.09375 -26.1875 C 29.570312 -29.09375 26.445312 -30.546875 22.71875 -30.546875 C 20.414062 -30.546875 18.359375 -30.039062 16.546875 -29.03125 C 14.742188 -28.019531 13.332031 -26.609375 12.3125 -24.796875 C 11.300781 -22.984375 10.796875 -20.925781 10.796875 -18.625 C 10.796875 -16.320312 11.300781 -14.265625 12.3125 -12.453125 C 13.332031 -10.640625 14.742188 -9.226562 16.546875 -8.21875 C 18.359375 -7.207031 20.414062 -6.703125 22.71875 -6.703125 C 26.445312 -6.703125 29.570312 -8.175781 32.09375 -11.125 L 37.625 -6.015625 C 35.851562 -3.847656 33.65625 -2.195312 31.03125 -1.0625 C 28.40625 0.0703125 25.476562 0.640625 22.25 0.640625 Z M 22.25 0.640625 "/></g></g></g><g fill="#101123" fill-opacity="1"><g transform="translate(496.304621, 618.429888)"><g><path d="M 28.953125 -7.984375 L 11.65625 -7.984375 L 8.359375 0 L -0.484375 0 L 16.125 -37.25 L 24.640625 -37.25 L 41.296875 0 L 32.25 0 Z M 26.234375 -14.53125 L 20.328125 -28.796875 L 14.421875 -14.53125 Z M 26.234375 -14.53125 "/></g></g></g><g fill="#101123" fill-opacity="1"><g transform="translate(575.811581, 618.429888)"><g><path d="M 4.421875 -37.25 L 13.03125 -37.25 L 13.03125 -7.03125 L 31.71875 -7.03125 L 31.71875 0 L 4.421875 0 Z M 4.421875 -37.25 "/></g></g></g><g fill="#101123" fill-opacity="1"><g transform="translate(646.699004, 618.429888)"><g><path d="M 22.25 0.640625 C 18.445312 0.640625 15.007812 -0.179688 11.9375 -1.828125 C 8.875 -3.484375 6.460938 -5.773438 4.703125 -8.703125 C 2.953125 -11.628906 2.078125 -14.9375 2.078125 -18.625 C 2.078125 -22.3125 2.953125 -25.617188 4.703125 -28.546875 C 6.460938 -31.472656 8.875 -33.757812 11.9375 -35.40625 C 15.007812 -37.0625 18.460938 -37.890625 22.296875 -37.890625 C 25.523438 -37.890625 28.441406 -37.320312 31.046875 -36.1875 C 33.660156 -35.050781 35.851562 -33.421875 37.625 -31.296875 L 32.09375 -26.1875 C 29.570312 -29.09375 26.445312 -30.546875 22.71875 -30.546875 C 20.414062 -30.546875 18.359375 -30.039062 16.546875 -29.03125 C 14.742188 -28.019531 13.332031 -26.609375 12.3125 -24.796875 C 11.300781 -22.984375 10.796875 -20.925781 10.796875 -18.625 C 10.796875 -16.320312 11.300781 -14.265625 12.3125 -12.453125 C 13.332031 -10.640625 14.742188 -9.226562 16.546875 -8.21875 C 18.359375 -7.207031 20.414062 -6.703125 22.71875 -6.703125 C 26.445312 -6.703125 29.570312 -8.175781 32.09375 -11.125 L 37.625 -6.015625 C 35.851562 -3.847656 33.65625 -2.195312 31.03125 -1.0625 C 28.40625 0.0703125 25.476562 0.640625 22.25 0.640625 Z M 22.25 0.640625 "/></g></g></g><g fill="#101123" fill-opacity="1"><g transform="translate(724.450211, 618.429888)"><g><path d="M 20.96875 0.640625 C 15.644531 0.640625 11.5 -0.832031 8.53125 -3.78125 C 5.570312 -6.726562 4.09375 -10.929688 4.09375 -16.390625 L 4.09375 -37.25 L 12.71875 -37.25 L 12.71875 -16.703125 C 12.71875 -10.035156 15.484375 -6.703125 21.015625 -6.703125 C 23.710938 -6.703125 25.769531 -7.507812 27.1875 -9.125 C 28.613281 -10.738281 29.328125 -13.265625 29.328125 -16.703125 L 29.328125 -37.25 L 37.84375 -37.25 L 37.84375 -16.390625 C 37.84375 -10.929688 36.359375 -6.726562 33.390625 -3.78125 C 30.429688 -0.832031 26.289062 0.640625 20.96875 0.640625 Z M 20.96875 0.640625 "/></g></g></g><g fill="#101123" fill-opacity="1"><g transform="translate(805.127774, 618.429888)"><g><path d="M 4.421875 -37.25 L 13.03125 -37.25 L 13.03125 -7.03125 L 31.71875 -7.03125 L 31.71875 0 L 4.421875 0 Z M 4.421875 -37.25 "/></g></g></g><g fill="#101123" fill-opacity="1"><g transform="translate(876.015197, 618.429888)"><g><path d="M 28.953125 -7.984375 L 11.65625 -7.984375 L 8.359375 0 L -0.484375 0 L 16.125 -37.25 L 24.640625 -37.25 L 41.296875 0 L 32.25 0 Z M 26.234375 -14.53125 L 20.328125 -28.796875 L 14.421875 -14.53125 Z M 26.234375 -14.53125 "/></g></g></g><g fill="#101123" fill-opacity="1"><g transform="translate(955.522221, 618.429888)"><g><path d="M 12.140625 -30.234375 L 0.21875 -30.234375 L 0.21875 -37.25 L 32.671875 -37.25 L 32.671875 -30.234375 L 20.75 -30.234375 L 20.75 0 L 12.140625 0 Z M 12.140625 -30.234375 "/></g></g></g><g fill="#101123" fill-opacity="1"><g transform="translate(1027.154515, 618.429888)"><g><path d="M 22.453125 0.640625 C 18.585938 0.640625 15.101562 -0.191406 12 -1.859375 C 8.894531 -3.523438 6.460938 -5.820312 4.703125 -8.75 C 2.953125 -11.675781 2.078125 -14.96875 2.078125 -18.625 C 2.078125 -22.28125 2.953125 -25.570312 4.703125 -28.5 C 6.460938 -31.425781 8.894531 -33.722656 12 -35.390625 C 15.101562 -37.054688 18.585938 -37.890625 22.453125 -37.890625 C 26.328125 -37.890625 29.804688 -37.054688 32.890625 -35.390625 C 35.972656 -33.722656 38.398438 -31.425781 40.171875 -28.5 C 41.953125 -25.570312 42.84375 -22.28125 42.84375 -18.625 C 42.84375 -14.96875 41.953125 -11.675781 40.171875 -8.75 C 38.398438 -5.820312 35.972656 -3.523438 32.890625 -1.859375 C 29.804688 -0.191406 26.328125 0.640625 22.453125 0.640625 Z M 22.453125 -6.703125 C 24.660156 -6.703125 26.648438 -7.207031 28.421875 -8.21875 C 30.191406 -9.226562 31.582031 -10.640625 32.59375 -12.453125 C 33.601562 -14.265625 34.109375 -16.320312 34.109375 -18.625 C 34.109375 -20.925781 33.601562 -22.984375 32.59375 -24.796875 C 31.582031 -26.609375 30.191406 -28.019531 28.421875 -29.03125 C 26.648438 -30.039062 24.660156 -30.546875 22.453125 -30.546875 C 20.253906 -30.546875 18.269531 -30.039062 16.5 -29.03125 C 14.726562 -28.019531 13.332031 -26.609375 12.3125 -24.796875 C 11.300781 -22.984375 10.796875 -20.925781 10.796875 -18.625 C 10.796875 -16.320312 11.300781 -14.265625 12.3125 -12.453125 C 13.332031 -10.640625 14.726562 -9.226562 16.5 -8.21875 C 18.269531 -7.207031 20.253906 -6.703125 22.453125 -6.703125 Z M 22.453125 -6.703125 "/></g></g></g><g fill="#101123" fill-opacity="1"><g transform="translate(1110.811679, 618.429888)"><g><path d="M 28.15625 0 L 20.96875 -10.375 L 13.03125 -10.375 L 13.03125 0 L 4.421875 0 L 4.421875 -37.25 L 20.546875 -37.25 C 23.835938 -37.25 26.695312 -36.695312 29.125 -35.59375 C 31.5625 -34.5 33.4375 -32.941406 34.75 -30.921875 C 36.0625 -28.898438 36.71875 -26.503906 36.71875 -23.734375 C 36.71875 -20.960938 36.050781 -18.578125 34.71875 -16.578125 C 33.394531 -14.578125 31.507812 -13.039062 29.0625 -11.96875 L 37.40625 0 Z M 28 -23.734375 C 28 -25.828125 27.320312 -27.429688 25.96875 -28.546875 C 24.625 -29.671875 22.65625 -30.234375 20.0625 -30.234375 L 13.03125 -30.234375 L 13.03125 -17.25 L 20.0625 -17.25 C 22.65625 -17.25 24.625 -17.816406 25.96875 -18.953125 C 27.320312 -20.085938 28 -21.679688 28 -23.734375 Z M 28 -23.734375 "/></g></g></g></svg>