<svg xmlns="http://www.w3.org/2000/svg" xmlns:xlink="http://www.w3.org/1999/xlink" width="500" zoomAndPan="magnify" viewBox="0 0 375 374.999991" height="500" preserveAspectRatio="xMidYMid meet" version="1.0"><defs><g/><clipPath id="34d6714b2f"><path d="M 145 126 L 284 126 L 284 246.011719 L 145 246.011719 Z M 145 126 " clip-rule="nonzero"/></clipPath><clipPath id="e314a2a6e4"><path d="M 91 44.261719 L 217 44.261719 L 217 178 L 91 178 Z M 91 44.261719 " clip-rule="nonzero"/></clipPath></defs><g fill="#000000" fill-opacity="1"><g transform="translate(73.769507, 292.934245)"><g><path d="M 20.90625 0 L 18.859375 -6.75 L 8.53125 -6.75 L 6.46875 0 L 0 0 L 10 -28.453125 L 17.34375 -28.453125 L 27.375 0 Z M 17.421875 -11.78125 C 15.523438 -17.894531 14.457031 -21.347656 14.21875 -22.140625 C 13.976562 -22.941406 13.804688 -23.578125 13.703125 -24.046875 C 13.273438 -22.390625 12.050781 -18.300781 10.03125 -11.78125 Z M 17.421875 -11.78125 "/></g></g></g><g fill="#000000" fill-opacity="1"><g transform="translate(102.853407, 292.934245)"><g><path d="M 3.5625 0 L 3.5625 -28.328125 L 9.578125 -28.328125 L 9.578125 0 Z M 3.5625 0 "/></g></g></g><g fill="#000000" fill-opacity="1"><g transform="translate(117.696566, 292.934245)"><g><path d="M 26.625 -28.328125 L 26.625 -10 C 26.625 -7.90625 26.15625 -6.066406 25.21875 -4.484375 C 24.28125 -2.910156 22.925781 -1.703125 21.15625 -0.859375 C 19.382812 -0.0234375 17.296875 0.390625 14.890625 0.390625 C 11.242188 0.390625 8.410156 -0.539062 6.390625 -2.40625 C 4.378906 -4.28125 3.375 -6.835938 3.375 -10.078125 L 3.375 -28.328125 L 9.359375 -28.328125 L 9.359375 -10.984375 C 9.359375 -8.804688 9.796875 -7.207031 10.671875 -6.1875 C 11.554688 -5.164062 13.007812 -4.65625 15.03125 -4.65625 C 17 -4.65625 18.425781 -5.164062 19.3125 -6.1875 C 20.195312 -7.21875 20.640625 -8.832031 20.640625 -11.03125 L 20.640625 -28.328125 Z M 26.625 -28.328125 "/></g></g></g><g fill="#000000" fill-opacity="1"><g transform="translate(149.396105, 292.934245)"><g><path d="M 3.5625 -28.328125 L 12.390625 -28.328125 C 16.398438 -28.328125 19.3125 -27.753906 21.125 -26.609375 C 22.945312 -25.472656 23.859375 -23.65625 23.859375 -21.15625 C 23.859375 -19.46875 23.457031 -18.082031 22.65625 -17 C 21.863281 -15.914062 20.8125 -15.257812 19.5 -15.03125 L 19.5 -14.84375 C 21.289062 -14.445312 22.582031 -13.695312 23.375 -12.59375 C 24.175781 -11.5 24.578125 -10.039062 24.578125 -8.21875 C 24.578125 -5.632812 23.640625 -3.617188 21.765625 -2.171875 C 19.898438 -0.722656 17.367188 0 14.171875 0 L 3.5625 0 Z M 9.578125 -17.109375 L 13.0625 -17.109375 C 14.6875 -17.109375 15.863281 -17.359375 16.59375 -17.859375 C 17.320312 -18.367188 17.6875 -19.203125 17.6875 -20.359375 C 17.6875 -21.453125 17.289062 -22.234375 16.5 -22.703125 C 15.707031 -23.171875 14.453125 -23.40625 12.734375 -23.40625 L 9.578125 -23.40625 Z M 9.578125 -12.34375 L 9.578125 -4.96875 L 13.484375 -4.96875 C 15.140625 -4.96875 16.359375 -5.28125 17.140625 -5.90625 C 17.929688 -6.539062 18.328125 -7.507812 18.328125 -8.8125 C 18.328125 -11.164062 16.648438 -12.34375 13.296875 -12.34375 Z M 9.578125 -12.34375 "/></g></g></g><g fill="#000000" fill-opacity="1"><g transform="translate(177.763114, 292.934245)"><g/></g></g><g fill="#000000" fill-opacity="1"><g transform="translate(189.7775, 292.934245)"><g><path d="M 15.59375 -23.734375 C 13.332031 -23.734375 11.582031 -22.882812 10.34375 -21.1875 C 9.101562 -19.488281 8.484375 -17.125 8.484375 -14.09375 C 8.484375 -7.769531 10.851562 -4.609375 15.59375 -4.609375 C 17.582031 -4.609375 19.992188 -5.109375 22.828125 -6.109375 L 22.828125 -1.0625 C 20.503906 -0.09375 17.90625 0.390625 15.03125 0.390625 C 10.914062 0.390625 7.765625 -0.859375 5.578125 -3.359375 C 3.398438 -5.859375 2.3125 -9.445312 2.3125 -14.125 C 2.3125 -17.070312 2.84375 -19.648438 3.90625 -21.859375 C 4.976562 -24.078125 6.519531 -25.773438 8.53125 -26.953125 C 10.539062 -28.140625 12.894531 -28.734375 15.59375 -28.734375 C 18.351562 -28.734375 21.117188 -28.070312 23.890625 -26.75 L 21.953125 -21.859375 C 20.890625 -22.359375 19.820312 -22.796875 18.75 -23.171875 C 17.6875 -23.546875 16.632812 -23.734375 15.59375 -23.734375 Z M 15.59375 -23.734375 "/></g></g></g><g fill="#000000" fill-opacity="1"><g transform="translate(216.76889, 292.934245)"><g><path d="M 14.328125 -15.90625 L 25.5625 -15.90625 L 25.5625 -1.21875 C 23.738281 -0.625 22.019531 -0.207031 20.40625 0.03125 C 18.800781 0.269531 17.160156 0.390625 15.484375 0.390625 C 11.203125 0.390625 7.9375 -0.863281 5.6875 -3.375 C 3.4375 -5.894531 2.3125 -9.503906 2.3125 -14.203125 C 2.3125 -18.773438 3.617188 -22.335938 6.234375 -24.890625 C 8.847656 -27.453125 12.472656 -28.734375 17.109375 -28.734375 C 20.015625 -28.734375 22.816406 -28.15625 25.515625 -27 L 23.53125 -22.1875 C 21.457031 -23.21875 19.304688 -23.734375 17.078125 -23.734375 C 14.472656 -23.734375 12.390625 -22.859375 10.828125 -21.109375 C 9.265625 -19.367188 8.484375 -17.03125 8.484375 -14.09375 C 8.484375 -11.007812 9.113281 -8.65625 10.375 -7.03125 C 11.632812 -5.414062 13.46875 -4.609375 15.875 -4.609375 C 17.125 -4.609375 18.394531 -4.738281 19.6875 -5 L 19.6875 -10.90625 L 14.328125 -10.90625 Z M 14.328125 -15.90625 "/></g></g></g><g fill="#000000" fill-opacity="1"><g transform="translate(247.209057, 292.934245)"><g><path d="M 9.578125 -15 L 11.546875 -15 C 13.398438 -15 14.785156 -15.363281 15.703125 -16.09375 C 16.617188 -16.820312 17.078125 -17.882812 17.078125 -19.28125 C 17.078125 -20.6875 16.691406 -21.722656 15.921875 -22.390625 C 15.148438 -23.066406 13.945312 -23.40625 12.3125 -23.40625 L 9.578125 -23.40625 Z M 23.140625 -19.5 C 23.140625 -16.445312 22.1875 -14.113281 20.28125 -12.5 C 18.375 -10.882812 15.664062 -10.078125 12.15625 -10.078125 L 9.578125 -10.078125 L 9.578125 0 L 3.5625 0 L 3.5625 -28.328125 L 12.609375 -28.328125 C 16.046875 -28.328125 18.660156 -27.585938 20.453125 -26.109375 C 22.242188 -24.628906 23.140625 -22.425781 23.140625 -19.5 Z M 23.140625 -19.5 "/></g></g></g><g fill="#000000" fill-opacity="1"><g transform="translate(273.832312, 292.934245)"><g><path d="M 20.90625 0 L 18.859375 -6.75 L 8.53125 -6.75 L 6.46875 0 L 0 0 L 10 -28.453125 L 17.34375 -28.453125 L 27.375 0 Z M 17.421875 -11.78125 C 15.523438 -17.894531 14.457031 -21.347656 14.21875 -22.140625 C 13.976562 -22.941406 13.804688 -23.578125 13.703125 -24.046875 C 13.273438 -22.390625 12.050781 -18.300781 10.03125 -11.78125 Z M 17.421875 -11.78125 "/></g></g></g><g fill="#000000" fill-opacity="1"><g transform="translate(36.418805, 325.568373)"><g><path d="M 9.75 -15.703125 C 7.851562 -15.703125 6.359375 -15.066406 5.265625 -13.796875 C 4.171875 -12.535156 3.625 -10.8125 3.625 -8.625 C 3.625 -6.363281 4.148438 -4.617188 5.203125 -3.390625 C 6.265625 -2.160156 7.773438 -1.546875 9.734375 -1.546875 C 10.929688 -1.546875 12.300781 -1.757812 13.84375 -2.1875 L 13.84375 -0.4375 C 12.644531 0.0078125 11.171875 0.234375 9.421875 0.234375 C 6.878906 0.234375 4.914062 -0.535156 3.53125 -2.078125 C 2.15625 -3.617188 1.46875 -5.804688 1.46875 -8.640625 C 1.46875 -10.421875 1.800781 -11.976562 2.46875 -13.3125 C 3.132812 -14.65625 4.09375 -15.6875 5.34375 -16.40625 C 6.601562 -17.125 8.082031 -17.484375 9.78125 -17.484375 C 11.582031 -17.484375 13.160156 -17.15625 14.515625 -16.5 L 13.671875 -14.78125 C 12.367188 -15.394531 11.0625 -15.703125 9.75 -15.703125 Z M 9.75 -15.703125 "/></g></g></g><g fill="#000000" fill-opacity="1"><g transform="translate(68.472075, 325.568373)"><g><path d="M 13.203125 0 L 11.0625 -5.484375 L 4.15625 -5.484375 L 2.03125 0 L 0 0 L 6.8125 -17.3125 L 8.5 -17.3125 L 15.28125 0 Z M 10.4375 -7.296875 L 8.4375 -12.625 C 8.175781 -13.300781 7.90625 -14.132812 7.625 -15.125 C 7.457031 -14.363281 7.210938 -13.53125 6.890625 -12.625 L 4.859375 -7.296875 Z M 10.4375 -7.296875 "/></g></g></g><g fill="#000000" fill-opacity="1"><g transform="translate(100.572513, 325.568373)"><g><path d="M 2.375 0 L 2.375 -17.25 L 4.375 -17.25 L 4.375 -1.8125 L 11.984375 -1.8125 L 11.984375 0 Z M 2.375 0 "/></g></g></g><g fill="#000000" fill-opacity="1"><g transform="translate(129.925381, 325.568373)"><g><path d="M 9.75 -15.703125 C 7.851562 -15.703125 6.359375 -15.066406 5.265625 -13.796875 C 4.171875 -12.535156 3.625 -10.8125 3.625 -8.625 C 3.625 -6.363281 4.148438 -4.617188 5.203125 -3.390625 C 6.265625 -2.160156 7.773438 -1.546875 9.734375 -1.546875 C 10.929688 -1.546875 12.300781 -1.757812 13.84375 -2.1875 L 13.84375 -0.4375 C 12.644531 0.0078125 11.171875 0.234375 9.421875 0.234375 C 6.878906 0.234375 4.914062 -0.535156 3.53125 -2.078125 C 2.15625 -3.617188 1.46875 -5.804688 1.46875 -8.640625 C 1.46875 -10.421875 1.800781 -11.976562 2.46875 -13.3125 C 3.132812 -14.65625 4.09375 -15.6875 5.34375 -16.40625 C 6.601562 -17.125 8.082031 -17.484375 9.78125 -17.484375 C 11.582031 -17.484375 13.160156 -17.15625 14.515625 -16.5 L 13.671875 -14.78125 C 12.367188 -15.394531 11.0625 -15.703125 9.75 -15.703125 Z M 9.75 -15.703125 "/></g></g></g><g fill="#000000" fill-opacity="1"><g transform="translate(161.978656, 325.568373)"><g><path d="M 15.390625 -17.25 L 15.390625 -6.09375 C 15.390625 -4.125 14.796875 -2.578125 13.609375 -1.453125 C 12.421875 -0.328125 10.789062 0.234375 8.71875 0.234375 C 6.644531 0.234375 5.035156 -0.328125 3.890625 -1.453125 C 2.753906 -2.585938 2.1875 -4.148438 2.1875 -6.140625 L 2.1875 -17.25 L 4.203125 -17.25 L 4.203125 -5.984375 C 4.203125 -4.546875 4.59375 -3.441406 5.375 -2.671875 C 6.164062 -1.898438 7.320312 -1.515625 8.84375 -1.515625 C 10.300781 -1.515625 11.421875 -1.898438 12.203125 -2.671875 C 12.992188 -3.453125 13.390625 -4.566406 13.390625 -6.015625 L 13.390625 -17.25 Z M 15.390625 -17.25 "/></g></g></g><g fill="#000000" fill-opacity="1"><g transform="translate(196.378563, 325.568373)"><g><path d="M 2.375 0 L 2.375 -17.25 L 4.375 -17.25 L 4.375 -1.8125 L 11.984375 -1.8125 L 11.984375 0 Z M 2.375 0 "/></g></g></g><g fill="#000000" fill-opacity="1"><g transform="translate(225.731438, 325.568373)"><g><path d="M 13.203125 0 L 11.0625 -5.484375 L 4.15625 -5.484375 L 2.03125 0 L 0 0 L 6.8125 -17.3125 L 8.5 -17.3125 L 15.28125 0 Z M 10.4375 -7.296875 L 8.4375 -12.625 C 8.175781 -13.300781 7.90625 -14.132812 7.625 -15.125 C 7.457031 -14.363281 7.210938 -13.53125 6.890625 -12.625 L 4.859375 -7.296875 Z M 10.4375 -7.296875 "/></g></g></g><g fill="#000000" fill-opacity="1"><g transform="translate(257.831881, 325.568373)"><g><path d="M 7.671875 0 L 5.671875 0 L 5.671875 -15.46875 L 0.21875 -15.46875 L 0.21875 -17.25 L 13.140625 -17.25 L 13.140625 -15.46875 L 7.671875 -15.46875 Z M 7.671875 0 "/></g></g></g><g fill="#000000" fill-opacity="1"><g transform="translate(288.010205, 325.568373)"><g><path d="M 17.34375 -8.640625 C 17.34375 -5.878906 16.644531 -3.707031 15.25 -2.125 C 13.851562 -0.550781 11.910156 0.234375 9.421875 0.234375 C 6.878906 0.234375 4.914062 -0.539062 3.53125 -2.09375 C 2.15625 -3.644531 1.46875 -5.835938 1.46875 -8.671875 C 1.46875 -11.472656 2.160156 -13.644531 3.546875 -15.1875 C 4.929688 -16.738281 6.898438 -17.515625 9.453125 -17.515625 C 11.921875 -17.515625 13.851562 -16.726562 15.25 -15.15625 C 16.644531 -13.582031 17.34375 -11.410156 17.34375 -8.640625 Z M 3.59375 -8.640625 C 3.59375 -6.304688 4.085938 -4.535156 5.078125 -3.328125 C 6.078125 -2.117188 7.523438 -1.515625 9.421875 -1.515625 C 11.335938 -1.515625 12.78125 -2.113281 13.75 -3.3125 C 14.726562 -4.519531 15.21875 -6.296875 15.21875 -8.640625 C 15.21875 -10.960938 14.726562 -12.722656 13.75 -13.921875 C 12.78125 -15.117188 11.347656 -15.71875 9.453125 -15.71875 C 7.535156 -15.71875 6.078125 -15.113281 5.078125 -13.90625 C 4.085938 -12.707031 3.59375 -10.953125 3.59375 -8.640625 Z M 3.59375 -8.640625 "/></g></g></g><g fill="#000000" fill-opacity="1"><g transform="translate(323.636478, 325.568373)"><g><path d="M 4.375 -7.171875 L 4.375 0 L 2.375 0 L 2.375 -17.25 L 7.09375 -17.25 C 9.21875 -17.25 10.785156 -16.84375 11.796875 -16.03125 C 12.804688 -15.21875 13.3125 -14 13.3125 -12.375 C 13.3125 -10.09375 12.15625 -8.550781 9.84375 -7.75 L 14.515625 0 L 12.15625 0 L 7.96875 -7.171875 Z M 4.375 -8.890625 L 7.125 -8.890625 C 8.539062 -8.890625 9.578125 -9.171875 10.234375 -9.734375 C 10.898438 -10.296875 11.234375 -11.140625 11.234375 -12.265625 C 11.234375 -13.410156 10.894531 -14.234375 10.21875 -14.734375 C 9.550781 -15.234375 8.472656 -15.484375 6.984375 -15.484375 L 4.375 -15.484375 Z M 4.375 -8.890625 "/></g></g></g><g clip-path="url(#34d6714b2f)"><path fill="#2b2b2b" d="M 214.839844 246.011719 C 176.777344 246.011719 145.820312 214.679688 145.820312 176.144531 C 145.820312 157.882812 152.71875 140.644531 165.234375 127.597656 C 165.996094 126.792969 167.265625 126.773438 168.070312 127.539062 C 168.875 128.304688 168.894531 129.589844 168.128906 130.378906 C 156.339844 142.679688 149.84375 158.929688 149.84375 176.125 C 149.84375 212.425781 178.992188 241.945312 214.816406 241.945312 C 250.644531 241.945312 279.8125 212.40625 279.8125 176.125 C 279.8125 175.015625 280.71875 174.109375 281.824219 174.109375 C 282.929688 174.109375 283.835938 175.015625 283.835938 176.125 C 283.855469 214.679688 252.898438 246.011719 214.839844 246.011719 Z M 214.839844 246.011719 " fill-opacity="1" fill-rule="nonzero"/></g><path fill="#2b2b2b" d="M 262.210938 130.214844 C 261.6875 130.214844 261.164062 130.015625 260.78125 129.613281 C 248.53125 117.1875 232.21875 110.34375 214.839844 110.34375 C 205.0625 110.34375 195.667969 112.496094 186.898438 116.726562 C 185.890625 117.207031 184.683594 116.785156 184.203125 115.78125 C 183.71875 114.773438 184.140625 113.566406 185.148438 113.082031 C 194.460938 108.570312 204.457031 106.296875 214.839844 106.296875 C 233.304688 106.296875 250.625 113.566406 263.640625 126.773438 C 264.425781 127.558594 264.402344 128.847656 263.621094 129.613281 C 263.238281 130.035156 262.714844 130.214844 262.210938 130.214844 Z M 262.210938 130.214844 " fill-opacity="1" fill-rule="nonzero"/><path fill="#2b2b2b" d="M 281.824219 178.175781 L 214.839844 178.175781 C 213.730469 178.175781 212.828125 177.269531 212.828125 176.164062 C 212.828125 175.054688 213.730469 174.148438 214.839844 174.148438 L 281.824219 174.148438 C 282.929688 174.148438 283.835938 175.054688 283.835938 176.164062 C 283.835938 177.269531 282.929688 178.175781 281.824219 178.175781 Z M 281.824219 178.175781 " fill-opacity="1" fill-rule="nonzero"/><g clip-path="url(#e314a2a6e4)"><path fill="#2b2b2b" d="M 214.65625 177.996094 C 213.894531 177.996094 213.1875 177.574219 212.847656 176.828125 L 153.988281 51.328125 L 95.148438 176.828125 C 94.667969 177.835938 93.480469 178.277344 92.472656 177.792969 C 91.46875 177.332031 91.023438 176.125 91.507812 175.117188 L 152.175781 45.710938 C 152.839844 44.300781 155.15625 44.300781 155.820312 45.710938 L 216.488281 175.117188 C 216.972656 176.125 216.527344 177.332031 215.523438 177.792969 C 215.242188 177.933594 214.9375 177.996094 214.65625 177.996094 Z M 214.65625 177.996094 " fill-opacity="1" fill-rule="nonzero"/></g></svg>