<?xml version="1.0" encoding="UTF-8"?>
<svg version="1.1" xmlns="http://www.w3.org/2000/svg" width="1338" height="755">
<path d="M0 0 C441.54 0 883.08 0 1338 0 C1338 249.15 1338 498.3 1338 755 C896.46 755 454.92 755 0 755 C0 505.85 0 256.7 0 0 Z " fill="#F5F6FB" transform="translate(0,0)"/>
<path d="M0 0 C5.39163085 4.74138392 8.94439871 11.47533283 9.55078125 18.6328125 C10.39671867 45.52657294 -5.87471906 74.04094613 -19.16796875 96.42578125 C-19.65998779 97.25779053 -20.15200684 98.0897998 -20.65893555 98.94702148 C-21.125979 99.71087158 -21.59302246 100.47472168 -22.07421875 101.26171875 C-22.68233398 102.25631104 -22.68233398 102.25631104 -23.30273438 103.27099609 C-25.60396827 106.27099522 -27.622517 107.91148754 -31.39453125 108.4140625 C-32.82925781 108.38892578 -32.82925781 108.38892578 -34.29296875 108.36328125 C-35.73542969 108.35748047 -35.73542969 108.35748047 -37.20703125 108.3515625 C-39.66796875 108.05078125 -39.66796875 108.05078125 -41.66796875 106.05078125 C-41.38736 101.52897166 -39.12547712 98.09177824 -36.85546875 94.30078125 C-14.10645983 56.49021564 -14.10645983 56.49021564 -10.3046875 14.5234375 C-11.07427296 12.12297543 -11.07427296 12.12297543 -12.66796875 9.05078125 C-12.95671875 8.26703125 -13.24546875 7.48328125 -13.54296875 6.67578125 C-15.19971992 4.28269622 -16.91372948 3.94890275 -19.66796875 3.05078125 C-21.02345069 2.53338059 -22.37753962 2.01232084 -23.73046875 1.48828125 C-65.54145979 -14.49096879 -127.66052278 17.99015024 -165.61053467 34.91723633 C-191.18032233 46.38385518 -215.92851164 59.15521585 -240.02001953 73.48291016 C-242.36136088 74.86923637 -244.71160558 76.23726152 -247.0703125 77.59375 C-265.87820791 88.43528684 -284.12852166 100.26048939 -301.66796875 113.05078125 C-302.4170752 113.59412109 -303.16618164 114.13746094 -303.93798828 114.69726562 C-319.25302929 125.81818549 -334.36235579 137.20121097 -348.72265625 149.5390625 C-351.52175954 151.92609621 -354.36481966 154.24438276 -357.23046875 156.55078125 C-362.30836314 160.6811968 -367.11360728 165.05909893 -371.91015625 169.5078125 C-374.07137423 171.50066364 -376.25143844 173.4478591 -378.48046875 175.36328125 C-401.4912328 195.40182161 -435.95455874 226.47461217 -438.94140625 259.03125 C-439.18808146 266.8204941 -438.41185392 272.70251642 -433.66796875 279.05078125 C-431.22487896 281.51012219 -428.64919681 283.29587395 -425.66796875 285.05078125 C-424.9615625 285.47875 -424.25515625 285.90671875 -423.52734375 286.34765625 C-418.44744405 289.14678465 -413.12661651 291.02888675 -407.60546875 292.73828125 C-406.66199585 293.04197632 -406.66199585 293.04197632 -405.69946289 293.35180664 C-390.2286076 297.87301286 -373.56048598 297.4365868 -357.60546875 297.67578125 C-355.46678294 297.71407348 -353.3281107 297.75313117 -351.18945312 297.79296875 C-346.01573852 297.88770771 -340.84195249 297.97216968 -335.66796875 298.05078125 C-335.5627037 297.46681076 -335.45743866 296.88284027 -335.34898376 296.28117371 C-334.05646373 289.44519655 -332.27018547 282.83186765 -330.296875 276.1640625 C-329.97387924 275.0628154 -329.65088348 273.9615683 -329.31809998 272.82695007 C-328.63859245 270.51445949 -327.95692402 268.20260288 -327.27319336 265.89135742 C-326.23097458 262.36499272 -325.19805808 258.83599523 -324.16601562 255.30664062 C-323.50185768 253.05061761 -322.8371625 250.79475267 -322.171875 248.5390625 C-321.86552628 247.4909993 -321.55917755 246.4429361 -321.24354553 245.3631134 C-319.67252368 240.07560771 -317.89575014 235.09202224 -315.66796875 230.05078125 C-315.08928367 228.22339654 -314.54933768 226.3831497 -314.0546875 224.53125 C-313.77931152 223.51812744 -313.50393555 222.50500488 -313.22021484 221.46118164 C-312.79216553 219.86584595 -312.79216553 219.86584595 -312.35546875 218.23828125 C-310.27304269 210.62465288 -308.11165134 203.07772857 -305.54296875 195.61328125 C-303.33161 189.17564183 -301.40797307 182.70878747 -299.62792969 176.13964844 C-297.15104232 167.04732647 -294.35688185 158.05280089 -291.58837891 149.04589844 C-290.35007687 145.01632566 -289.11604546 140.98546572 -287.88598633 136.95336914 C-287.28822282 134.99601195 -286.68785166 133.03944899 -286.0847168 131.08374023 C-284.82107854 126.964301 -283.58888426 122.85447576 -282.55078125 118.671875 C-282.08285156 116.81755859 -282.08285156 116.81755859 -281.60546875 114.92578125 C-281.36699219 113.89195312 -281.12851562 112.858125 -280.8828125 111.79296875 C-279.26105249 108.13227573 -277.1552547 105.92724122 -273.66796875 104.05078125 C-270.03878649 103.34668804 -266.48411428 103.41794668 -262.79736328 103.4831543 C-261.17207954 103.4820591 -261.17207954 103.4820591 -259.51396179 103.48094177 C-255.94238753 103.48441753 -252.37212692 103.52328089 -248.80078125 103.5625 C-246.32071648 103.5718281 -243.84064247 103.57894422 -241.36056519 103.5839386 C-234.84031637 103.60300829 -228.32062648 103.65211021 -221.80059814 103.7074585 C-215.14451642 103.76136016 -208.48827185 103.78145273 -201.83203125 103.80664062 C-188.77710561 103.86022783 -175.72256694 103.94457715 -162.66796875 104.05078125 C-161.71876032 107.04125822 -160.77134505 110.0323005 -159.82421875 113.0234375 C-159.55899414 113.85895142 -159.29376953 114.69446533 -159.02050781 115.55529785 C-156.90667302 122.23559937 -154.90770084 128.94471243 -152.94921875 135.671875 C-151.54962532 140.47313652 -150.10950409 145.26197524 -148.66796875 150.05078125 C-146.60983736 156.89315399 -144.57376597 163.74138449 -142.5690918 170.59960938 C-141.43083622 174.48548871 -140.27257247 178.36449803 -139.09375 182.23828125 C-138.825625 183.12193359 -138.5575 184.00558594 -138.28125 184.91601562 C-137.76454644 186.61609636 -137.24520775 188.31537949 -136.72265625 190.01367188 C-135.51802467 193.98244457 -134.37775103 197.96541444 -133.3671875 201.98828125 C-133.18373779 202.70886719 -133.00028809 203.42945313 -132.8112793 204.171875 C-132.66796875 206.05078125 -132.66796875 206.05078125 -134.66796875 208.55078125 C-135.65796875 209.37578125 -136.64796875 210.20078125 -137.66796875 211.05078125 C-146.27533173 222.31315171 -148.70650712 232.98724077 -147.66796875 247.05078125 C-146.12719148 253.54046813 -143.51035295 257.61192907 -138.66796875 262.05078125 C-138.66796875 263.04078125 -138.66796875 264.03078125 -138.66796875 265.05078125 C-140.79296875 265.73828125 -140.79296875 265.73828125 -143.66796875 266.05078125 C-144.55935547 265.5724585 -145.45074219 265.09413574 -146.36914062 264.60131836 C-150.12793376 262.83458544 -153.25159566 262.51635179 -157.32421875 262.5546875 C-158.42606506 262.56140221 -158.42606506 262.56140221 -159.5501709 262.56825256 C-168.76189861 262.8419324 -177.37370542 265.43166822 -186.16796875 267.98828125 C-188.66989049 268.69788638 -191.17341258 269.40103212 -193.67907715 270.0973053 C-195.21877427 270.52692913 -196.75621518 270.96476912 -198.29064941 271.41282654 C-203.41346775 272.86657657 -208.36233098 273.5725809 -213.66796875 274.05078125 C-215.80786033 269.35651459 -216.75993011 264.5119099 -217.79296875 259.48828125 C-217.97472656 258.63814453 -218.15648437 257.78800781 -218.34375 256.91210938 C-219.12916962 253.14741009 -219.66796875 249.92782946 -219.66796875 246.05078125 C-220.32796875 246.05078125 -220.98796875 246.05078125 -221.66796875 246.05078125 C-221.78269531 247.26378906 -221.89742187 248.47679687 -222.015625 249.7265625 C-222.70982702 255.95974019 -223.90969041 262.08507783 -225.10546875 268.23828125 C-225.32267578 269.38748047 -225.53988281 270.53667969 -225.76367188 271.72070312 C-225.97830078 272.83380859 -226.19292969 273.94691406 -226.4140625 275.09375 C-226.70301392 276.5945813 -226.70301392 276.5945813 -226.99780273 278.12573242 C-227.69831758 281.18324366 -228.63033126 284.0923462 -229.66796875 287.05078125 C-223.95914086 285.74539721 -218.25156029 284.43472727 -212.54525757 283.11834717 C-210.54737497 282.65747699 -208.54934877 282.19722889 -206.55117798 281.73760986 C-195.57179742 279.20802196 -184.665259 276.61074594 -173.85546875 273.42578125 C-166.12458594 271.18270894 -158.75894964 269.77776761 -150.66796875 271.05078125 C-149.67796875 271.71078125 -148.68796875 272.37078125 -147.66796875 273.05078125 C-147.99796875 274.37078125 -148.32796875 275.69078125 -148.66796875 277.05078125 C-169.36092555 282.61320556 -190.06075708 288.08703125 -210.98046875 292.73828125 C-211.74572876 292.91012939 -212.51098877 293.08197754 -213.29943848 293.2590332 C-215.45861899 293.74196629 -217.61941698 294.21659917 -219.78125 294.6875 C-221.60329956 295.08521606 -221.60329956 295.08521606 -223.4621582 295.4909668 C-226.28790772 295.98441312 -228.81063277 296.16841842 -231.66796875 296.05078125 C-232.03148437 297.92056641 -232.03148437 297.92056641 -232.40234375 299.828125 C-234.06977817 308.33674703 -235.76933865 316.84037048 -237.66796875 325.30078125 C-237.80944336 325.96585693 -237.95091797 326.63093262 -238.09667969 327.31616211 C-238.90443504 330.82335808 -239.99829975 333.79886589 -241.71875 336.9296875 C-244.08489906 341.4349143 -244.5027328 345.71674807 -244.85546875 350.73828125 C-244.99285359 352.38818336 -245.13212125 354.03792997 -245.2734375 355.6875 C-245.3357959 356.44595215 -245.3981543 357.2044043 -245.46240234 357.98583984 C-245.70099344 360.38251862 -246.11882366 362.70617048 -246.66796875 365.05078125 C-245.45173828 365.03724609 -245.45173828 365.03724609 -244.2109375 365.0234375 C-236.36768326 365.23344314 -231.84252978 366.6997475 -225.48046875 371.203125 C-213.98145218 378.75734005 -200.30003257 380.43714054 -186.85546875 380.36328125 C-185.28224854 380.35699707 -185.28224854 380.35699707 -183.67724609 380.35058594 C-175.6532515 380.2340986 -168.36574531 379.45763322 -160.66796875 377.05078125 C-159.77335937 376.77234375 -158.87875 376.49390625 -157.95703125 376.20703125 C-134.8339256 367.95386123 -122.20818253 346.66926324 -110.97119141 326.38647461 C-109.8109496 324.30703786 -108.62234895 322.24774815 -107.421875 320.19140625 C-106.01222695 317.66722577 -104.8709629 315.32931458 -103.91796875 312.61328125 C-103.50546875 311.43765625 -103.09296875 310.26203125 -102.66796875 309.05078125 C-99.75219248 311.96655752 -99.10690898 315.5618666 -97.98046875 319.42578125 C-97.74263672 320.1940625 -97.50480469 320.96234375 -97.25976562 321.75390625 C-97.03998047 322.49898438 -96.82019531 323.2440625 -96.59375 324.01171875 C-96.39177002 324.69024902 -96.18979004 325.3687793 -95.98168945 326.06787109 C-95.30238936 330.36147056 -97.43996964 333.96923203 -99.171875 337.8125 C-99.66494141 338.93205078 -100.15800781 340.05160156 -100.66601562 341.20507812 C-101.70240457 343.54568686 -102.74916724 345.88173183 -103.80664062 348.21289062 C-106.69614986 354.82884426 -108.5049669 359.81620592 -107.66796875 367.05078125 C-105.58502246 371.1422829 -103.90728968 373.35350285 -99.66796875 375.05078125 C-94.83959249 375.63813292 -89.93463408 375.58411379 -85.66796875 373.05078125 C-85.33796875 372.06078125 -85.00796875 371.07078125 -84.66796875 370.05078125 C-82.66796875 371.05078125 -82.66796875 371.05078125 -81.80859375 373.5078125 C-81.5146875 374.61511719 -81.22078125 375.72242188 -80.91796875 376.86328125 C-80.57121094 378.13171875 -80.22445313 379.40015625 -79.8671875 380.70703125 C-79.58174072 381.75310547 -79.58174072 381.75310547 -79.29052734 382.8203125 C-78.16499974 386.852791 -76.94283482 390.85623025 -75.73046875 394.86328125 C-73.60067098 401.92820513 -71.49446921 408.99925686 -69.43310547 416.08447266 C-67.85182293 421.49807035 -66.14232085 426.86528459 -64.3671875 432.21875 C-62.62009025 439.29498187 -62.62009025 439.29498187 -64.65454102 442.70385742 C-66.07314464 444.55157882 -67.56747993 446.30125264 -69.10546875 448.05078125 C-82.98371719 464.6448293 -94.75538072 483.55778818 -95.04296875 505.73828125 C-95.05706787 506.53459961 -95.07116699 507.33091797 -95.08569336 508.15136719 C-95.0396186 513.76198999 -93.86974423 517.89281484 -91.66796875 523.05078125 C-91.33796875 524.04078125 -91.00796875 525.03078125 -90.66796875 526.05078125 C-109.14796875 526.05078125 -127.62796875 526.05078125 -146.66796875 526.05078125 C-153.66796875 502.05078125 -153.66796875 502.05078125 -155.77734375 494.7734375 C-156.05707031 493.80857422 -156.33679688 492.84371094 -156.625 491.84960938 C-157.17052103 489.96715872 -157.71471706 488.08432375 -158.2578125 486.20117188 C-159.74357862 481.0846956 -161.31430583 476.03263086 -163.12597656 471.02124023 C-163.66796875 469.05078125 -163.66796875 469.05078125 -163.66796875 465.05078125 C-201.61796875 465.05078125 -239.56796875 465.05078125 -278.66796875 465.05078125 C-278.99796875 467.36078125 -279.32796875 469.67078125 -279.66796875 472.05078125 C-280.02523999 473.68152107 -280.41137291 475.30632505 -280.83203125 476.921875 C-281.06374023 477.81455078 -281.29544922 478.70722656 -281.53417969 479.62695312 C-281.78458008 480.57119141 -282.03498047 481.51542969 -282.29296875 482.48828125 C-282.68403809 483.97618164 -282.68403809 483.97618164 -283.08300781 485.49414062 C-285.83421677 495.85583671 -288.83753847 506.14266783 -291.89355469 516.41796875 C-292.83646775 519.62363534 -293.74999792 522.83788335 -294.66796875 526.05078125 C-330.96796875 526.05078125 -367.26796875 526.05078125 -404.66796875 526.05078125 C-402.41602205 515.91702108 -402.41602205 515.91702108 -401.40625 512.5703125 C-401.06400391 511.43057983 -401.06400391 511.43057983 -400.71484375 510.26782227 C-400.4725 509.47432373 -400.23015625 508.6808252 -399.98046875 507.86328125 C-399.72136719 507.00597412 -399.46226562 506.14866699 -399.1953125 505.26538086 C-396.96592752 497.93030615 -394.62143147 490.63335566 -392.2746582 483.33520508 C-390.00961404 476.24238462 -387.94460233 469.10556822 -385.93530273 461.93676758 C-384.16791701 455.6783212 -382.23634281 449.48653065 -380.23046875 443.30078125 C-377.65429368 435.35111599 -375.31788694 427.3590397 -373.10546875 419.30078125 C-370.9414309 411.4204509 -368.60628519 403.65914088 -365.93725586 395.93652344 C-363.75965219 389.54273906 -361.9540673 383.06341133 -360.16796875 376.55078125 C-357.98459659 368.58957709 -355.63896873 360.74639634 -352.93969727 352.94628906 C-350.39361387 345.47597743 -348.32861123 337.87656605 -346.29101562 330.25390625 C-344.14661459 322.35510533 -341.50436879 314.72365263 -338.66796875 307.05078125 C-339.85124756 307.05601807 -341.03452637 307.06125488 -342.25366211 307.06665039 C-346.72858902 307.08502656 -351.20351276 307.09632986 -355.6784668 307.10571289 C-357.59937098 307.11067978 -359.52027151 307.11745555 -361.44116211 307.1262207 C-394.41911381 307.27271278 -394.41911381 307.27271278 -407.04296875 304.42578125 C-407.81624512 304.2561084 -408.58952148 304.08643555 -409.38623047 303.91162109 C-421.71146614 301.04210946 -434.72914498 297.13290168 -444.66796875 289.05078125 C-445.28542969 288.61507813 -445.90289062 288.179375 -446.5390625 287.73046875 C-452.58185933 283.18212705 -456.76402955 276.38307522 -458.30859375 268.98046875 C-458.4271875 268.01367188 -458.54578125 267.046875 -458.66796875 266.05078125 C-458.75820313 265.32117188 -458.8484375 264.5915625 -458.94140625 263.83984375 C-459.91187186 243.1614611 -445.81205555 224.37456332 -433.66796875 209.05078125 C-432.91644531 208.08527344 -432.16492188 207.11976563 -431.390625 206.125 C-420.06400635 191.88763019 -407.02890504 179.34570351 -393.66796875 167.05078125 C-392.62213078 166.07971247 -391.57653032 165.10838778 -390.53125 164.13671875 C-385.36641593 159.37711417 -380.0609543 154.85700722 -374.59375 150.44921875 C-371.94525393 148.27808846 -369.35574036 146.05712274 -366.77441406 143.80761719 C-358.98821173 137.0314693 -350.8812206 130.75405842 -342.63867188 124.54541016 C-340.88062082 123.21206172 -339.1374873 121.86294121 -337.40234375 120.5 C-299.49639456 90.80700647 -257.5427129 65.79052494 -214.66796875 44.05078125 C-213.90838867 43.66341797 -213.14880859 43.27605469 -212.36621094 42.87695312 C-208.49308121 40.90312915 -204.60704629 38.95857819 -200.70263672 37.04736328 C-199.27561347 36.34840613 -197.85029933 35.64595385 -196.42626953 34.94091797 C-147.92333229 10.98307476 -50.58483784 -36.95729734 0 0 Z " fill="#545454" transform="translate(475.66796875,91.94921875)"/>
<path d="M0 0 C30.174375 -0.04125 60.34875 -0.0825 91.4375 -0.125 C105.69279907 -0.15231201 105.69279907 -0.15231201 120.23608398 -0.18017578 C131.90246582 -0.18920898 131.90246582 -0.18920898 137.37586975 -0.19088745 C141.1726468 -0.19273964 144.96936707 -0.20019001 148.76612854 -0.21115112 C153.6283564 -0.22499948 158.49050324 -0.2289585 163.35274899 -0.22614455 C165.12517284 -0.22673186 166.8975999 -0.23061994 168.67000663 -0.23843026 C183.67247282 -0.30140085 198.63595902 0.26967325 213 5 C213.91918213 5.28568848 213.91918213 5.28568848 214.85693359 5.57714844 C241.03043721 13.74967855 262.84951887 29.40581493 276 54 C289.91730422 82.03175485 295.86722859 118.58789873 287 149 C286.64808594 150.24523437 286.29617188 151.49046875 285.93359375 152.7734375 C279.43463373 174.52112313 266.03235735 192.11284927 246 203 C245.67 203.66 245.34 204.32 245 205 C246.155 205.309375 247.31 205.61875 248.5 205.9375 C260.9120552 210.14000688 276.64872202 218.57985089 283.3203125 230.32421875 C283.65675781 231.15373047 283.65675781 231.15373047 284 232 C283.40977051 232.68771484 282.81954102 233.37542969 282.21142578 234.08398438 C279.8766892 237.16259927 278.28199323 240.1723371 276.6171875 243.65625 C276.31684601 244.2810022 276.01650452 244.90575439 275.70706177 245.54943848 C274.75695917 247.53011524 273.81606801 249.51501765 272.875 251.5 C272.23623536 252.83229906 271.59691731 254.16433293 270.95703125 255.49609375 C267.27676424 263.15885856 267.27676424 263.15885856 264 271 C263.19369141 271.03963867 262.38738281 271.07927734 261.55664062 271.12011719 C257.86987991 271.31176098 254.1852114 271.53064218 250.5 271.75 C248.59734375 271.8428125 248.59734375 271.8428125 246.65625 271.9375 C239.46824511 272.38675031 234.07803382 273.01682249 228 277 C225.31226023 281.03160965 225.32584067 284.26423878 226 289 C228.37017309 293.12585686 230.53816426 294.60267779 235 296 C237.9324719 296.3681272 240.8606229 296.5062321 243.8125 296.625 C244.60076172 296.66367187 245.38902344 296.70234375 246.20117188 296.7421875 C248.1337538 296.83588844 250.06684376 296.91900779 252 297 C251.0900688 299.66913152 250.17228234 302.33513611 249.25 305 C248.99734375 305.74378906 248.7446875 306.48757813 248.484375 307.25390625 C248.2265625 307.99511719 247.96875 308.73632812 247.703125 309.5 C247.47270508 310.1703125 247.24228516 310.840625 247.00488281 311.53125 C246.13116327 313.67776409 245.16518077 315.68809651 244.11425781 317.75073242 C242.00499417 321.91356818 240.20878698 326.16032252 238.46875 330.48828125 C238.15095581 331.27212692 237.83316162 332.0559726 237.5057373 332.86357117 C236.83869359 334.51087548 236.1732266 336.15881907 235.50927734 337.80737305 C234.50623285 340.29702944 233.49767047 342.78439458 232.48828125 345.27148438 C231.83538138 346.88519177 231.1830285 348.4991206 230.53125 350.11328125 C230.21626053 350.89331009 229.90127106 351.67333893 229.57673645 352.477005 C227.53086218 357.57966052 225.63169045 362.71252045 223.92260742 367.93945312 C222.37391529 371.3982945 220.14548763 372.97290797 217 375 C216.67 375 216.34 375 216 375 C215.945862 372.75026553 215.90714509 370.50015617 215.875 368.25 C215.85179687 366.99703125 215.82859375 365.7440625 215.8046875 364.453125 C215.99298167 361.12408411 216.52068457 359.84075712 218 357 C218.19068712 350.98881543 217.52766152 344.98738353 214 340 C206.62174144 334.31259236 198.98311269 334.03095032 190 335 C169.9300479 339.7454904 153.12877578 355.57532974 141.875 372.125 C137.98890273 376.79881969 131.4444529 379.57226243 126 382 C125.01 382 124.02 382 123 382 C124.66314091 368.98162115 129.1954669 356.3661665 134.84765625 344.57421875 C136.50123258 340.88029738 137.70814709 337.07567501 138.91015625 333.21484375 C140.42801081 328.73744483 142.21530894 324.37667808 144 320 C144.80107178 319.98018066 145.60214355 319.96036133 146.42749023 319.93994141 C150.09779348 319.84400309 153.76758045 319.73460437 157.4375 319.625 C159.32758789 319.57859375 159.32758789 319.57859375 161.25585938 319.53125 C173.40738363 319.15052339 183.21679406 317.87299809 192.63671875 309.5546875 C198.22578927 303.41174512 199.5433879 296.09306426 199.4375 288.125 C199.43137695 287.33778564 199.42525391 286.55057129 199.41894531 285.73950195 C199.19455501 277.36715461 197.06047556 270.06047556 191 264 C185.5049093 259.35030787 178.83623729 257.90684364 172 256 C172.33 254.88625 172.66 253.7725 173 252.625 C174.18582048 247.75188372 174.83345799 242.98356323 174 238 C171.07590983 233.95787536 167.64267146 231.76421516 163 230 C158.79499126 229.47437391 156.6486424 229.66270595 152.875 231.625 C147.15145401 236.35314669 144.2033156 241.02937717 141.6875 247.875 C140.3571875 251.401875 140.3571875 251.401875 139 255 C129.1 255 119.2 255 109 255 C109 276.45 109 297.9 109 320 C109.66 320.33 110.32 320.66 111 321 C110.75878418 321.57741943 110.51756836 322.15483887 110.26904297 322.74975586 C109.13295931 325.47705893 108.00372885 328.207145 106.875 330.9375 C106.46048584 331.93281738 106.04597168 332.92813477 105.61889648 333.95361328 C103.4080523 339.32446439 101.4225357 344.66982144 99.72924805 350.22387695 C97.09718039 358.71569246 93.66390185 363.30237928 86 368 C84.66108626 368.99251588 83.32699037 369.99159813 82 371 C79 373 79 373 77 373 C78.77358491 364.67924528 78.77358491 364.67924528 80.125 360.625 C81.31513474 355.69444179 81.76292878 351.03688692 81 346 C78.28763783 342.20269296 75.51654472 340.15539516 71 339 C64.6023466 338.37072262 60.3311865 339.37392983 55 343 C49.75391753 347.32860617 45.66490449 352.79188166 41.421875 358.06640625 C37.45575095 362.87053393 33.2333267 367.43083528 29 372 C28.67 371.34 28.34 370.68 28 370 C28.92578125 367.3203125 28.92578125 367.3203125 30.3125 364.125 C30.76238281 363.07570313 31.21226562 362.02640625 31.67578125 360.9453125 C33 358 33 358 34.140625 355.921875 C35.84490739 352.11047984 35.62817187 348.0638874 35 344 C33.34538354 340.64974354 30.97758178 338.61447998 27.8125 336.625 C22.65712044 335.4793601 17.48964783 335.06299413 12.48828125 336.9453125 C8.76691202 340.01821708 7.19651644 343.86527329 5.1875 348.1875 C4.78080078 349.03248047 4.37410156 349.87746094 3.95507812 350.74804688 C2.95706543 352.82626154 1.97272684 354.90986154 1 357 C0.67 357 0.34 357 0 357 C0 239.19 0 121.38 0 0 Z " fill="#545454" transform="translate(914,196)"/>
<path d="M0 0 C37.29 0 74.58 0 113 0 C113.33 50.82 113.66 101.64 114 154 C125.22 150.04 136.44 146.08 148 142 C225.32740568 119.55010803 225.32740568 119.55010803 257.4140625 136.40234375 C264.35476776 140.6904834 267.856757 145.50939562 271.3125 152.75 C277.12945229 180.24831994 256.91304604 213.78843682 243.5 236.375 C242.76197144 237.62301392 242.76197144 237.62301392 242.0090332 238.89624023 C241.30846802 240.04201538 241.30846802 240.04201538 240.59375 241.2109375 C239.98563477 242.20552979 239.98563477 242.20552979 239.36523438 243.22021484 C237.06400048 246.22021397 235.04545175 247.86070629 231.2734375 248.36328125 C229.83871094 248.33814453 229.83871094 248.33814453 228.375 248.3125 C227.41335938 248.30863281 226.45171875 248.30476562 225.4609375 248.30078125 C223 248 223 248 221 246 C221.28060875 241.47819041 223.54249163 238.04099699 225.8125 234.25 C248.56150892 196.43943439 248.56150892 196.43943439 252.36328125 154.47265625 C251.59369579 152.07219418 251.59369579 152.07219418 250 149 C249.566875 147.824375 249.566875 147.824375 249.125 146.625 C247.46824883 144.23191497 245.75423927 143.8981215 243 143 C241.64451806 142.48259934 240.29042913 141.96153959 238.9375 141.4375 C203.47179316 127.88327937 150.10901106 152.27885681 117.45703125 166.0390625 C115 167 115 167 113 167 C113.01501631 178.82452209 113.05723277 190.64862693 113.13209057 202.47292995 C113.1660581 207.96630002 113.19142271 213.45940091 113.19555664 218.95288086 C111.64387624 266.9706686 111.64387624 266.9706686 132.4296875 308.48828125 C139.08078984 314.58212907 146.13449413 315.58463542 154.81640625 315.34375 C162.024517 314.56545093 167.50364735 311.47797299 172.37890625 306.15234375 C188.39006707 284.89415191 188.43893506 254.84538629 188.51171875 229.5390625 C188.52861969 227.28363098 188.54677689 225.02820856 188.56611633 222.77279663 C188.61303552 216.91724498 188.64321679 211.06173022 188.66955566 205.20605469 C188.699659 199.19849354 188.7460846 193.19105905 188.79101562 187.18359375 C188.8763854 175.45579623 188.94402072 163.72797214 189 152 C190.88245171 151.51307155 192.76606706 151.03064063 194.65014648 150.55004883 C196.22335915 150.14632805 196.22335915 150.14632805 197.82835388 149.73445129 C202.54353052 148.64256795 207.24631406 148.1004262 212.0625 147.6875 C213.01769531 147.60411377 213.97289062 147.52072754 214.95703125 147.43481445 C224.78065086 146.69250713 233.68603068 147.21009224 241.8125 153.375 C243.47488341 155.64984045 243.69890106 157.16966996 244 160 C244.13148438 160.93005859 244.13148438 160.93005859 244.265625 161.87890625 C245.30575228 175.47147872 237.98831665 189.92537198 232.08056641 201.79736328 C230.80804885 204.39127503 229.58105252 207.00468385 228.35546875 209.62109375 C220.29218608 226.77660015 220.29218608 226.77660015 215.875 233.875 C213.1083115 238.46170286 211.25491789 242.55766111 212 248 C214.19021603 252.54891022 216.53323202 254.76982029 221 257 C227.56378582 257.901085 233.30486312 257.59692856 239 254 C239.66 254 240.32 254 241 254 C238.47927361 260.34694689 235.82554907 266.63870535 233.1875 272.9375 C232.9019928 273.61961548 232.6164856 274.30173096 232.32232666 275.0045166 C228.34581816 284.49796545 224.30119008 293.95886808 220.18496704 303.39251709 C208.33544201 329.45767493 208.33544201 329.45767493 199.375 356.5625 C197.44488558 364.10116151 193.73100456 368.82707079 188 374 C187.45601562 374.58007812 186.91203125 375.16015625 186.3515625 375.7578125 C185 377 185 377 183 377 C183.08745575 374.60250616 183.19437075 372.20851779 183.3125 369.8125 C183.33505859 369.13896484 183.35761719 368.46542969 183.38085938 367.77148438 C183.6191947 363.32978056 184.54883417 360.66384787 187 357 C187.78169122 351.08148076 186.2538134 346.84902711 183 342 C177.29748997 336.44370817 171.70800666 335.55193002 163.93823242 335.56616211 C157.13681322 335.76386348 151.93127979 337.84251278 146 341 C145.00226563 341.51949219 144.00453125 342.03898437 142.9765625 342.57421875 C126.29689063 351.77162136 111.29651426 365.61023088 105.296875 384.17578125 C104.96094608 386.23997604 104.7945865 388.2206499 104.75 390.3125 C104.72421875 391.03050781 104.6984375 391.74851562 104.671875 392.48828125 C105.13258795 396.01492917 106.50736723 398.77512762 108 402 C107.05382812 402.08636719 106.10765625 402.17273438 105.1328125 402.26171875 C96.43604343 403.15597663 88.3507565 404.76932271 80.02978516 407.4987793 C76.90552229 408.46943433 74.58370468 409.13086005 71.3515625 408.40625 C37.82333525 388.35614732 17.77568078 351.1258661 8.25 314.3125 C5.33445112 302.37550286 3.6264024 290.16903158 2 278 C1.89179932 277.20327881 1.78359863 276.40655762 1.67211914 275.58569336 C0.97846393 270.02241997 0.88100453 264.53924307 0.9375 258.9375 C0.94201172 258.07189453 0.94652344 257.20628906 0.95117188 256.31445312 C0.96280087 254.20960461 0.98072927 252.10479242 1 250 C0.34 250 -0.32 250 -1 250 C-1.33 242.74 -1.66 235.48 -2 228 C-24.1961779 242.69945556 -45.92490946 257.71098899 -67 274 C-67.68787598 274.53044922 -68.37575195 275.06089844 -69.08447266 275.60742188 C-77.01610527 281.73465384 -84.74723492 288.06350523 -92.35253906 294.59082031 C-94.0280879 296.02402539 -95.71226974 297.44649738 -97.3984375 298.8671875 C-104.98106023 305.27798923 -112.29317987 311.92936385 -119.51953125 318.73828125 C-122.4512535 321.49778375 -125.4294441 324.19861336 -128.4375 326.875 C-136.39652947 334.01973933 -143.43995122 341.54539425 -150 350 C-150.80195801 351.02794678 -150.80195801 351.02794678 -151.62011719 352.07666016 C-163.78884818 367.78581848 -176.9937419 385.03388033 -176.40625 405.81640625 C-175.53136584 412.67246959 -172.72301622 417.9884769 -167.3125 422.3125 C-165.89836578 423.24478108 -164.45966912 424.14076215 -163 425 C-162.29359375 425.42796875 -161.5871875 425.8559375 -160.859375 426.296875 C-155.7794753 429.0960034 -150.45864776 430.9781055 -144.9375 432.6875 C-143.9940271 432.99119507 -143.9940271 432.99119507 -143.03149414 433.30102539 C-126.84674685 438.03085957 -109.48619782 437.36655611 -92.8125 437.3125 C-90.97412064 437.30876877 -90.97412064 437.30876877 -89.09860229 437.30496216 C-28.18807141 437.11526805 31.11316932 429.63558857 89.75976562 413.05102539 C97.15013499 411.03708836 104.32829073 409.61295496 112 411 C112.99 411.66 113.98 412.32 115 413 C114.67 414.32 114.34 415.64 114 417 C34.77667914 438.32519803 -62.30101792 462.88958638 -144.375 444.375 C-145.14972656 444.20460205 -145.92445313 444.0342041 -146.72265625 443.85864258 C-163.10768478 440.03777793 -180.93595786 434.34194562 -191 420 C-193.77536322 415.49321752 -195.57383026 411.32712178 -196 406 C-196.07476562 405.3296875 -196.14953125 404.659375 -196.2265625 403.96875 C-197.53339139 383.33460964 -183.08003886 364.2429644 -171 349 C-170.24847656 348.03449219 -169.49695313 347.06898438 -168.72265625 346.07421875 C-157.3960376 331.83684894 -144.36093629 319.29492226 -131 307 C-129.95416203 306.02893122 -128.90856157 305.05760653 -127.86328125 304.0859375 C-122.69844718 299.32633292 -117.39298555 294.80622597 -111.92578125 290.3984375 C-109.27728518 288.22730721 -106.68777161 286.00634149 -104.10644531 283.75683594 C-96.32024298 276.98068805 -88.21325185 270.70327717 -79.97070312 264.49462891 C-78.21265207 263.16128047 -76.46951855 261.81215996 -74.734375 260.44921875 C-54.89296051 244.9067774 -33.68772055 230.95260336 -12.3125 217.625 C-11.40894775 217.059021 -10.50539551 216.49304199 -9.57446289 215.90991211 C-8.74164795 215.39565674 -7.90883301 214.88140137 -7.05078125 214.3515625 C-6.31512939 213.89604004 -5.57947754 213.44051758 -4.8215332 212.97119141 C-3 212 -3 212 -1 212 C-1 195.17 -1 178.34 -1 161 C3.29 158.69 7.58 156.38 12 154 C15.54538977 150.79399385 15.54538977 150.79399385 18 148 C18.66 148 19.32 148 20 148 C20.25523437 147.4225 20.51046875 146.845 20.7734375 146.25 C22.11725144 143.78491456 23.72692169 142.06210977 25.625 140 C29.36600635 135.29054942 29.73696134 131.59810947 29.63671875 125.69921875 C28.70368339 121.74383571 26.44129426 119.99399604 23.1875 117.75 C19.93364921 116.63439402 17.41965225 116.64624287 14 117 C9.3566732 119.36904428 6.45231889 122.571764 3.296875 126.609375 C2.86890625 127.06828125 2.4409375 127.5271875 2 128 C1.34 128 0.68 128 0 128 C0 85.76 0 43.52 0 0 Z " fill="#545454" transform="translate(585,195)"/>
<path d="M0 0 C36.96 0 73.92 0 112 0 C112.12099405 64.15821384 112.12099405 64.15821384 112.14648438 91.10351562 C112.15235652 97.26928735 112.15841754 103.43505885 112.16479492 109.60083008 C112.16558617 110.37343196 112.16637741 111.14603384 112.16719264 111.94204789 C112.18018149 124.35681459 112.20379973 136.77153889 112.23145839 149.18628059 C112.25967858 161.96119851 112.27621103 174.73609449 112.28226548 187.5110423 C112.28634781 195.37110381 112.29916067 203.23104547 112.3237494 211.09107002 C112.34173266 217.1546424 112.3433244 223.21811533 112.33932304 229.2817173 C112.34013754 231.74243397 112.34595674 234.20315588 112.35761642 236.66384506 C112.48782577 265.60267427 109.97168646 295.32524135 101 323 C100.7628125 323.95519531 100.525625 324.91039062 100.28125 325.89453125 C99.09201741 329.95576053 98.23537437 332.29760687 94.46484375 334.44140625 C92.40178862 335.24799425 90.32230366 336.01348496 88.23046875 336.7421875 C79.29364038 340.22182321 71.54957433 347.25284987 66 355 C64.79420838 357.65499476 64.79420838 357.65499476 64 360 C63.34 360 62.68 360 62 360 C61.855625 360.99 61.71125 361.98 61.5625 363 C59.24199245 371.03252613 50.13461044 375.89366359 43.30859375 379.8125 C40.61390919 381.19859832 37.93093385 382.22870162 35 383 C35.82766604 372.44725802 39.5511263 362.75323781 43.71484375 353.1015625 C45.10343958 349.75036161 46.30938254 346.36379101 47.5 342.9375 C49.31897505 337.74773681 51.41047794 332.81523437 53.75 327.84375 C55.17096239 324.61106055 56.34000735 321.33497887 57.5 318 C59.29813502 312.83526327 61.35112336 307.93098815 63.6796875 302.98828125 C65.30174916 299.31704703 66.68345058 295.58034498 68.0625 291.8125 C69.81587601 287.02547879 71.66670262 282.41728807 74.0703125 277.91796875 C75.671346 274.61499627 76.7795433 271.12678865 77.99609375 267.66796875 C78.89320236 265.28382409 79.89454674 263.07291144 81.0625 260.8125 C84.96075191 253.2008935 87.20594345 246.7293861 86 238 C83.48314727 233.16764275 80.05940716 231.71505327 75 230 C72.67810464 229.5945897 70.34484656 229.23927006 68 229 C68.69036473 224.88872348 70.80698078 221.52320746 72.8125 217.9375 C75.71615426 212.62621904 78.14775973 207.41797976 80.07421875 201.6640625 C81.08056952 198.76815017 82.27326819 195.99675291 83.5 193.1875 C89.56086196 178.53259847 93.46588259 162.4011129 88.4375 146.75 C83.38044144 135.32678615 73.17639584 128.64032637 62 124 C52.19087074 121.26088744 42.6683904 120.56774875 32.53833008 120.71875 C30.43487572 120.75003904 28.33218073 120.75976317 26.22851562 120.765625 C17.42408013 120.82372292 8.81772252 121.37016268 0 122 C0 81.74 0 41.48 0 0 Z " fill="#545454" transform="translate(774,196)"/>
<path d="M0 0 C2.375 0.6875 2.375 0.6875 3.375 1.6875 C3.17200008 10.05462705 0.11021558 16.83752128 -3.1875 24.4375 C-4.21768411 26.82466765 -5.24016016 29.21518044 -6.25390625 31.609375 C-6.9356189 33.18090332 -6.9356189 33.18090332 -7.63110352 34.78417969 C-8.60827089 37.63863178 -8.83381953 39.70003904 -8.625 42.6875 C-7.64104248 42.71255615 -6.65708496 42.7376123 -5.64331055 42.76342773 C-1.99229943 42.8576082 1.65852616 42.9578029 5.30932617 43.05981445 C6.88936015 43.10312305 8.46943969 43.14480106 10.04956055 43.18481445 C12.32094048 43.24261583 14.59209189 43.3062816 16.86328125 43.37109375 C17.56963211 43.38780624 18.27598297 43.40451874 19.0037384 43.42173767 C22.0414824 43.5134747 24.47123058 43.71957686 27.375 44.6875 C25.625 48.5625 25.625 48.5625 23.375 49.6875 C20.80914892 49.78368446 18.2654168 49.82456071 15.69921875 49.828125 C14.13344902 49.8464554 12.56769341 49.86602593 11.00195312 49.88671875 C8.53304279 49.9156695 6.06503829 49.9374995 3.59594727 49.93798828 C1.21288671 49.94132958 -1.16808444 49.97591678 -3.55078125 50.015625 C-4.28428299 50.0085553 -5.01778473 50.0014856 -5.77351379 49.99420166 C-9.47317158 50.08172431 -11.42402571 50.53872637 -14.42041016 52.75683594 C-16.91508575 56.07312451 -18.50385703 59.40613071 -19.97265625 63.25 C-20.26611938 63.98561157 -20.55958252 64.72122314 -20.86193848 65.47912598 C-21.8158725 67.87733394 -22.75180208 70.28212526 -23.6875 72.6875 C-24.68205151 75.20597549 -25.68062907 77.72283047 -26.6794281 80.23962402 C-27.35265369 81.93701055 -28.02433057 83.63501213 -28.69447327 85.33361816 C-30.75008668 90.53351623 -32.86711147 95.70137173 -35.0625 100.84375 C-39.62717927 111.54864493 -44.09871235 122.19387428 -47.375 133.375 C-47.73573608 134.58542969 -47.73573608 134.58542969 -48.10375977 135.8203125 C-49.62210816 141.39758294 -50.25705868 146.91372052 -49.625 152.6875 C-48.26737846 155.46314845 -48.26737846 155.46314845 -45.625 156.6875 C-33.45888296 158.42551672 -20.75003024 151.29833223 -11.33203125 144.3125 C-4.49436057 138.95197808 1.0111108 132.89733732 6.15454102 125.90234375 C9.83188927 120.98084895 13.84790543 116.72972079 19.88671875 114.9453125 C20.60472656 114.90148437 21.32273437 114.85765625 22.0625 114.8125 C22.78824219 114.75320313 23.51398437 114.69390625 24.26171875 114.6328125 C26.375 114.6875 26.375 114.6875 28.33203125 115.3046875 C31.14780063 115.83230777 32.73772747 114.75469325 35.375 113.6875 C48.30630239 112.3868076 48.30630239 112.3868076 53.0625 115.4375 C56.76595726 119.04086382 58.81923131 121.38906258 58.9375 126.6875 C58.60833862 136.98750814 52.72192215 145.24888792 45.8046875 152.4921875 C37.65787972 159.85312958 29.08948017 163.11504689 18.15234375 162.875 C10.25974527 162.34216635 4.091548 160.65181787 -1.5 154.6875 C-2.625 152.6875 -2.625 152.6875 -2.625 148.6875 C-3.91470703 149.77417969 -3.91470703 149.77417969 -5.23046875 150.8828125 C-12.96475053 157.26097645 -20.20066001 162.06677576 -29.625 165.6875 C-30.78 166.14125 -31.935 166.595 -33.125 167.0625 C-41.64629826 168.5841604 -50.79299227 168.8078882 -58.625 164.6875 C-61.78217502 162.06771647 -64.23985912 159.59107884 -65.625 155.6875 C-65.625 154.3675 -65.625 153.0475 -65.625 151.6875 C-66.23085937 152.08582031 -66.83671875 152.48414063 -67.4609375 152.89453125 C-76.31112843 158.49057505 -84.98155278 162.05107331 -95.625 160.6875 C-99.30577728 159.27784062 -100.32508407 158.18021902 -102.375 154.8125 C-103.47928143 152.05179642 -104.0929462 149.5940902 -104.625 146.6875 C-105.15867187 147.19539062 -105.69234375 147.70328125 -106.2421875 148.2265625 C-116.36346137 157.57735877 -125.73267059 163.24073878 -139.80859375 163.01171875 C-143.86749892 162.54446614 -145.63892751 161.43782992 -148.625 158.6875 C-149.285 157.6975 -149.945 156.7075 -150.625 155.6875 C-152.85410065 156.78887597 -155.05992562 157.91950341 -157.25390625 159.08984375 C-165.61532674 163.46539402 -174.93569581 168.0174045 -184.625 166.6875 C-189.34760916 164.46509569 -191.76094521 161.7651802 -193.87890625 157.125 C-195.31660792 152.42800605 -195.4621988 147.57153604 -195.625 142.6875 C-196.41261719 143.3165625 -197.20023438 143.945625 -198.01171875 144.59375 C-221.75761042 163.34031297 -221.75761042 163.34031297 -235.22265625 162.99609375 C-238.94832729 162.51751162 -240.92336795 161.25734512 -243.625 158.6875 C-245.93663919 154.38306841 -246.89008169 150.4745826 -247.625 145.6875 C-248.35203125 146.37714844 -249.0790625 147.06679688 -249.828125 147.77734375 C-272.39367418 168.95669101 -272.39367418 168.95669101 -286.125 169.9375 C-289.93615423 169.6652747 -291.66373346 169.05651323 -294.625 166.6875 C-297.08879304 163.07280018 -296.8291652 159.71242094 -296.75 155.4375 C-296.73195313 154.17421875 -296.71390625 152.9109375 -296.6953125 151.609375 C-296.67210937 150.64515625 -296.64890625 149.6809375 -296.625 148.6875 C-297.51058594 149.14640625 -298.39617187 149.6053125 -299.30859375 150.078125 C-315.84139704 158.38525898 -334.47679398 162.99674594 -352.96875 158.95703125 C-359.66484121 156.48633495 -364.44633115 152.43773818 -368.625 146.6875 C-369.93210937 147.77417969 -369.93210937 147.77417969 -371.265625 148.8828125 C-382.43939716 158.0189587 -395.79815817 167.7705416 -411.0625 166.625 C-415.01469948 165.5849475 -416.86240357 164.6868904 -419.625 161.6875 C-422.08960193 157.09824124 -422.76260645 153.82963592 -422.625 148.6875 C-423.26824219 149.21859375 -423.91148437 149.7496875 -424.57421875 150.296875 C-433.14626589 156.99799031 -442.6142178 161.60359466 -453.7578125 161.01171875 C-457.52658071 160.35730921 -459.73765985 158.57484015 -462.375 155.9375 C-464.0415613 152.93768967 -464.20067714 150.06636719 -464.625 146.6875 C-465.53121094 147.43515625 -466.43742188 148.1828125 -467.37109375 148.953125 C-478.4978248 157.9995214 -487.80045625 163.91036396 -502.625 162.6875 C-506.7860986 161.15446367 -508.16435571 160.37846643 -510.625 156.6875 C-511.88104573 148.03474056 -508.51200173 141.70817577 -503.625 134.6875 C-493.70606101 121.58288734 -478.64182601 108.71141544 -461.95703125 106.1171875 C-453.86033547 105.84272324 -453.86033547 105.84272324 -449.8203125 108.60546875 C-446.90408549 111.3712143 -446.66586242 112.11542614 -446.375 116.1875 C-446.4575 117.3425 -446.54 118.4975 -446.625 119.6875 C-449.625 121.6875 -449.625 121.6875 -452.0625 121.5 C-454.625 120.6875 -454.625 120.6875 -456.4375 119.0625 C-459.18428067 117.33595215 -461.19039798 117.38130412 -464.3515625 117.921875 C-469.05999399 119.50753234 -472.77138044 122.63543331 -476.625 125.6875 C-477.31722656 126.19152344 -478.00945313 126.69554687 -478.72265625 127.21484375 C-486.35383961 133.17717986 -492.37492164 142.62149194 -495.625 151.6875 C-485.71105043 150.21876673 -479.69358968 143.58306978 -472.5 137.0625 C-470.87833072 135.60046379 -469.25351163 134.14191088 -467.625 132.6875 C-466.573125 131.74583984 -466.573125 131.74583984 -465.5 130.78515625 C-462.10577519 127.96768448 -459.74689034 126.33087932 -455.25 126.25 C-451.625 126.6875 -451.625 126.6875 -449.625 127.6875 C-449.38822508 133.48848558 -449.93363758 138.08486199 -451.625 143.6875 C-451.87696823 146.93850364 -451.87696823 146.93850364 -451.625 149.6875 C-450.50980761 151.00664978 -450.50980761 151.00664978 -447.6875 151.0625 C-439.15158887 150.81960822 -431.82298953 145.11861261 -425.94433594 139.34790039 C-420.08270313 132.81811683 -418.25006831 124.75924582 -415.78515625 116.5234375 C-413.5440322 109.14430925 -410.64873454 102.08323961 -407.625 95 C-407.35227264 94.35794617 -407.07954529 93.71589233 -406.79855347 93.05438232 C-404.7592554 88.25737094 -402.69554664 83.47109216 -400.625 78.6875 C-400.15616394 77.603479 -400.15616394 77.603479 -399.67785645 76.49755859 C-396.70297871 69.61997043 -393.7270898 62.74283164 -390.73535156 55.87255859 C-387.2143132 47.77253377 -383.76249209 39.64959167 -380.4140625 31.4765625 C-379.90173569 30.2296891 -379.90173569 30.2296891 -379.37905884 28.95762634 C-377.73860085 24.96292051 -376.10876079 20.96445396 -374.49658203 16.95825195 C-373.90957327 15.52278821 -373.32219126 14.08747702 -372.734375 12.65234375 C-372.47774078 12.00306915 -372.22110657 11.35379456 -371.95669556 10.68484497 C-370.4099317 6.94227075 -368.84536145 4.19314238 -365.625 1.6875 C-361.9264996 1.83544002 -360.26694427 2.04555573 -357.625 4.6875 C-357.89458755 10.94630276 -359.68129872 15.94924182 -362.16796875 21.64453125 C-362.52812073 22.49257828 -362.88827271 23.34062531 -363.25933838 24.21437073 C-364.03295138 26.03371242 -364.8109664 27.85118752 -365.59298706 29.66693115 C-367.67199355 34.4967024 -369.71618608 39.34122092 -371.765625 44.18359375 C-372.17973129 45.15955505 -372.59383759 46.13551636 -373.02049255 47.14105225 C-379.12947913 61.55915416 -384.92057487 76.10524506 -390.625 90.6875 C-391.0142868 91.68263611 -391.0142868 91.68263611 -391.41143799 92.69787598 C-403.27078644 119.2148705 -403.27078644 119.2148705 -408.8125 147.25 C-408.82667969 148.01441406 -408.84085938 148.77882813 -408.85546875 149.56640625 C-408.7573375 151.98903503 -408.7573375 151.98903503 -406.625 154.6875 C-397.38496376 156.43992067 -389.28017978 151.43258996 -381.625 146.6875 C-377.7144027 143.97420251 -374.11422832 140.92157451 -370.625 137.6875 C-370.07070313 137.1925 -369.51640625 136.6975 -368.9453125 136.1875 C-367.36832244 134.39588999 -366.67368586 132.72178087 -365.8125 130.5 C-360.67164432 118.53053603 -351.49353581 110.68477824 -339.625 105.6875 C-331.01280419 102.51458575 -323.88790743 102.9184545 -315.625 106.6875 C-314.965 107.3475 -314.305 108.0075 -313.625 108.6875 C-314.16071429 112.22321429 -314.16071429 112.22321429 -315.625 113.6875 C-317.98189717 113.48836745 -320.33572746 113.25255488 -322.6875 113 C-330.74445841 112.35082529 -334.79481067 113.43844284 -340.890625 118.609375 C-347.20834649 124.50870434 -353.79080211 131.52667052 -354.25 140.5625 C-354.02259987 143.56100866 -353.69574529 144.58531235 -351.9375 147.125 C-344.81617328 151.93670724 -337.27569172 151.54097859 -329.0703125 150.03515625 C-322.26028604 148.35784529 -315.8159016 146.12512597 -309.375 143.375 C-308.76237305 143.11581787 -308.14974609 142.85663574 -307.51855469 142.58959961 C-305.5125466 141.69029059 -303.57322469 140.70617812 -301.625 139.6875 C-300.73514404 139.24672119 -299.84528809 138.80594238 -298.9284668 138.35180664 C-290.6469411 133.77459929 -287.5614028 128.30630205 -283.9375 119.75 C-283.41478516 118.58919922 -282.89207031 117.42839844 -282.35351562 116.23242188 C-281.08105861 113.39565991 -279.8397909 110.54931316 -278.625 107.6875 C-273 107.4375 -273 107.4375 -269.625 109.6875 C-269.02787007 115.67526353 -270.10060705 119.97785876 -272.43359375 125.44140625 C-272.71977066 126.14595444 -273.00594757 126.85050262 -273.30079651 127.57640076 C-274.20835275 129.8065413 -275.13386137 132.02856495 -276.0625 134.25 C-276.98541181 136.47576088 -277.90403094 138.70301838 -278.81349182 140.93431091 C-279.37723705 142.31571064 -279.94881665 143.69394945 -280.52964783 145.06825256 C-282.28014752 149.33584296 -283.14969848 153.14185571 -283.625 157.6875 C-277.75949929 156.4221001 -274.3049438 154.29547779 -269.875 150.3125 C-269.27083252 149.78156738 -268.66666504 149.25063477 -268.04418945 148.70361328 C-262.12915463 143.41445446 -256.84957136 137.64690288 -251.625 131.6875 C-250.04346223 129.93587711 -248.46022233 128.18578905 -246.875 126.4375 C-243.60096835 122.80033783 -240.39010149 119.11585461 -237.23046875 115.37890625 C-232.83719674 110.75047126 -232.83719674 110.75047126 -229.51953125 110.578125 C-223.73611111 111.57638889 -223.73611111 111.57638889 -222.625 112.6875 C-221.75091458 120.56519486 -225.12517751 127.51315558 -227.78125 134.79492188 C-229.86028196 140.70160018 -231.10777288 145.41899589 -230.625 151.6875 C-221.31274499 150.23818661 -213.11116048 143.93935832 -205.54296875 138.6328125 C-202.625 136.6875 -202.625 136.6875 -199.92578125 135.4296875 C-194.04781779 132.4231947 -191.94651305 128.79053464 -189.85083008 122.76806641 C-189.22427436 120.82626289 -188.60604625 118.88175844 -187.99487305 116.93505859 C-185.10370599 107.76630797 -181.52668262 99.0503669 -177.6875 90.25 C-177.04420639 88.7682464 -176.40114279 87.28639293 -175.75830078 85.80444336 C-174.75972913 83.50423348 -173.76037088 81.20437815 -172.75894165 78.90541077 C-169.09313676 70.48594815 -165.49824378 62.03664426 -161.91000366 53.58389282 C-160.82110212 51.02025227 -159.72974922 48.45766681 -158.63793945 45.89526367 C-155.54465899 38.62769261 -152.47158592 31.35504139 -149.50390625 24.03515625 C-149.05055908 22.92164795 -148.59721191 21.80813965 -148.13012695 20.66088867 C-147.32847054 18.68193098 -146.53571937 16.69932691 -145.75463867 14.7121582 C-143.67802422 9.58739968 -141.60357806 5.58305797 -137.625 1.6875 C-134.4375 1.6875 -134.4375 1.6875 -131.625 2.6875 C-130.965 3.3475 -130.305 4.0075 -129.625 4.6875 C-129.90933938 10.60365472 -131.97279548 15.52404623 -134.28125 20.921875 C-134.65544067 21.81614197 -135.02963135 22.71040894 -135.41516113 23.6317749 C-136.22314546 25.56149933 -137.03458493 27.48977999 -137.84912109 29.41674805 C-140.03312286 34.5875582 -142.18731802 39.7707705 -144.34375 44.953125 C-145.00697266 46.54483521 -145.00697266 46.54483521 -145.68359375 48.16870117 C-155.25081441 71.17234194 -164.41040581 94.36290476 -173 117.75 C-173.43441406 118.93207031 -173.86882812 120.11414063 -174.31640625 121.33203125 C-179.17968521 133.65408239 -179.17968521 133.65408239 -180.9375 146.625 C-180.93363281 147.52089844 -180.92976563 148.41679688 -180.92578125 149.33984375 C-180.76744877 151.95533065 -180.76744877 151.95533065 -178.625 154.6875 C-172.00233271 156.25595779 -166.56433198 153.73069243 -160.9375 150.5 C-160.21755859 150.11263672 -159.49761719 149.72527344 -158.75585938 149.32617188 C-152.50294362 145.87766319 -147.28220404 142.22639548 -143.4375 136.0625 C-134.37684444 122.7866699 -120.37280964 111.10702726 -104.625 106.6875 C-101.17578125 106.25390625 -101.17578125 106.25390625 -97.9375 106.25 C-96.86113281 106.23066406 -95.78476563 106.21132813 -94.67578125 106.19140625 C-90.95584503 106.79631265 -89.30658918 108.09288128 -86.625 110.6875 C-85.24374982 113.45000036 -85.43420694 115.63481099 -85.625 118.6875 C-87.625 120.6875 -87.625 120.6875 -91.25 120.8125 C-92.36375 120.77125 -93.4775 120.73 -94.625 120.6875 C-94.955 119.6975 -95.285 118.7075 -95.625 117.6875 C-101.81601313 117.25304294 -105.47551342 118.08154761 -110.625 121.6875 C-111.23166504 122.0990332 -111.83833008 122.51056641 -112.46337891 122.93457031 C-121.9354631 129.51613617 -130.92037649 138.74031304 -134.34765625 150.078125 C-134.43917969 150.60921875 -134.53070312 151.1403125 -134.625 151.6875 C-122.763775 148.77080533 -114.79948399 140.00082077 -106.1328125 131.8515625 C-102.46455596 128.68611994 -99.42000905 126.24971447 -94.4375 126.375 C-90.625 126.6875 -90.625 126.6875 -88.625 128.6875 C-88.82594072 131.75184601 -89.16384699 134.65827473 -89.625 137.6875 C-89.79644531 138.83734375 -89.96789063 139.9871875 -90.14453125 141.171875 C-90.62615676 144.34575246 -91.12030328 147.51722058 -91.625 150.6875 C-82.00958142 151.48878488 -76.66884949 148.58617748 -69.3125 142.5625 C-65.24791222 138.764341 -63.4349326 135.86267648 -62.30834961 130.45507812 C-61.61075637 127.62981304 -60.65588168 125.15120935 -59.50390625 122.48046875 C-57.3461599 117.40325858 -55.23948889 112.30965352 -53.171875 107.1953125 C-52.86724838 106.44302872 -52.56262177 105.69074493 -52.24876404 104.91566467 C-51.29026019 102.54817835 -50.33252838 100.18038101 -49.375 97.8125 C-41.89176421 79.30836528 -41.89176421 79.30836528 -38.6796875 71.5546875 C-38.26106445 70.5426123 -37.84244141 69.53053711 -37.41113281 68.48779297 C-36.6617517 66.68051766 -35.90875681 64.87473456 -35.15136719 63.07080078 C-34.82555664 62.28431152 -34.49974609 61.49782227 -34.1640625 60.6875 C-33.88771973 60.0275 -33.61137695 59.3675 -33.32666016 58.6875 C-32.5178333 56.38203388 -32.05611335 54.08964067 -31.625 51.6875 C-32.42719971 51.69797363 -33.22939941 51.70844727 -34.0559082 51.71923828 C-37.68307372 51.76075767 -41.31018928 51.78681343 -44.9375 51.8125 C-46.20013672 51.82925781 -47.46277344 51.84601563 -48.76367188 51.86328125 C-50.57641602 51.87294922 -50.57641602 51.87294922 -52.42578125 51.8828125 C-53.54122314 51.89328613 -54.65666504 51.90375977 -55.8059082 51.91455078 C-58.625 51.6875 -58.625 51.6875 -61.625 49.6875 C-61.295 48.3675 -60.965 47.0475 -60.625 45.6875 C-53.64262154 43.10454496 -46.56260233 43.24120011 -39.1875 43.0625 C-37.23166992 43.00449219 -37.23166992 43.00449219 -35.23632812 42.9453125 C-32.03269001 42.85143299 -28.82905168 42.76574846 -25.625 42.6875 C-25.35405518 41.99309814 -25.08311035 41.29869629 -24.80395508 40.58325195 C-22.76611451 35.57790364 -20.46176217 30.69142022 -18.19458008 25.78686523 C-17.60951147 24.51875776 -17.02680262 23.24955873 -16.4465332 21.97924805 C-6.07572362 -0.72330043 -6.07572362 -0.72330043 0 0 Z " fill="#5574FE" transform="translate(1209.625,432.3125)"/>
<path d="M0 0 C1 1 1 1 1.24951172 3.62670898 C0.95929723 7.55028396 -0.2833888 10.50012601 -1.9921875 13.97265625 C-2.29818878 14.61818954 -2.60419006 15.26372284 -2.91946411 15.92881775 C-3.89386508 17.9787356 -4.88385054 20.02063564 -5.875 22.0625 C-6.85545155 24.10948801 -7.8326637 26.15799399 -8.80911255 28.20689392 C-9.41594973 29.47722295 -10.02571919 30.7461568 -10.6388855 32.01344299 C-13.22787628 37.38180385 -15.1724337 42.06910819 -16 48 C-4.82963786 43.68663245 5.98575557 38.82585117 16.78027344 33.65185547 C18.74189787 32.71362555 20.70669226 31.78231042 22.671875 30.8515625 C24.39035645 30.02906006 24.39035645 30.02906006 26.14355469 29.18994141 C29 28 29 28 32 28 C32.17015625 27.443125 32.3403125 26.88625 32.515625 26.3125 C36.32093809 14.32981196 36.32093809 14.32981196 39 11 C42.5625 9.875 42.5625 9.875 46 10 C46.99 10.66 47.98 11.32 49 12 C49.29296875 14.6015625 49.29296875 14.6015625 49.1875 17.625 C49.14689453 19.12933594 49.14689453 19.12933594 49.10546875 20.6640625 C49.07066406 21.43492187 49.03585937 22.20578125 49 23 C51.93394892 21.88069001 54.73715461 20.64312997 57.56640625 19.2734375 C65.54704031 15.43419707 72.92842845 12.08288381 82 14 C88.32601239 17.38473338 90.40981727 20.46287216 93 27 C106.59044048 27.48537287 119.55093375 24.15949364 130.01953125 15.359375 C138.72930969 8.46460937 148.07246556 3.98065189 159.328125 4.5234375 C161.97356701 4.99528534 163.75423744 5.53926064 166 7 C168.72286806 11.08430208 168.38524534 13.14590877 168 18 C165 20 165 20 162.5 19.8125 C160 19 160 19 158.5625 17.4375 C157.01531969 15.72651345 157.01531969 15.72651345 154.26953125 15.71875 C145.69393085 16.45643606 136.67839067 23.72868501 131 30 C126.13110669 36.30561593 121.96820501 42.58416918 119 50 C128.49612732 48.44608826 134.04508241 42.79818389 141 36.5 C142.66461506 34.99772356 144.3312409 33.49767181 146 32 C147.16402344 30.94619141 147.16402344 30.94619141 148.3515625 29.87109375 C151.90308531 26.85046868 154.59332651 24.57569068 159.375 24.375 C163 25 163 25 165.0625 26.125 C166.48498218 28.96996436 165.75376265 30.98494942 165 34 C164.67 34.99 164.34 35.98 164 37 C163.931009 39.06145107 163.91532273 41.12501401 163.9375 43.1875 C163.95103516 44.81751953 163.95103516 44.81751953 163.96484375 46.48046875 C163.97644531 47.31191406 163.98804688 48.14335937 164 49 C171.55922723 49.83991414 176.0757946 47.66303002 182 43 C184.92168502 40.23898146 187.7281686 37.36906631 190.44604492 34.4074707 C192.88269265 31.81052218 194.39580495 30.2030697 197.82421875 29.05078125 C198.54222656 29.03402344 199.26023437 29.01726562 200 29 C201 30 201 30 201.5 32.5 C200.29035403 40.96752179 192.29773114 47.00856904 185.91796875 52.05078125 C181.55100437 54.96793684 177.04259325 56.62697623 172 58 C171.32582031 58.18949219 170.65164063 58.37898438 169.95703125 58.57421875 C164.902851 59.67383082 160.44811714 59.62842819 155.6875 57.5625 C152.1378971 54.17799491 150.65516824 50.55658081 149 46 C148.16597656 46.67546875 147.33195312 47.3509375 146.47265625 48.046875 C135.61708398 56.70319533 126.31910949 62.18117112 112 61 C107.8389014 59.46696367 106.46064429 58.69096643 104 55 C102.31208152 47.20960702 105.94890765 41.40198532 110 35 C110.66 34.01 111.32 33.02 112 32 C108.93437022 33.09560636 105.8731245 34.20299572 102.8125 35.3125 C101.94818359 35.62123047 101.08386719 35.92996094 100.19335938 36.24804688 C93.50561132 38.68228467 88.58683934 40.51879769 84.6875 46.75 C76.49180039 58.82417844 64.08911994 64.87425952 50 68 C47.34592819 68.21605765 44.7223326 68.27328531 42.06030273 68.30883789 C33.61046269 68.46718949 33.61046269 68.46718949 26.28515625 72.13671875 C24.54297571 74.89547821 23.30186216 77.6548482 22.02653503 80.64820862 C20.03573685 85.20912653 17.85309112 89.68037854 15.6953125 94.1640625 C15.1749794 95.24628586 14.6546463 96.32850922 14.11854553 97.44352722 C8.2815004 109.5445291 2.30579075 121.5757904 -3.70336914 133.59204102 C-5.28076836 136.74673543 -6.8525239 139.90420905 -8.42311192 143.06229877 C-9.94646576 146.12274914 -11.47552868 149.18033665 -13.00390625 152.23828125 C-13.56324356 153.36414139 -14.12258087 154.49000153 -14.6988678 155.64997864 C-15.22048996 156.69014633 -15.74211212 157.73031403 -16.27954102 158.80200195 C-16.73410172 159.71254837 -17.18866241 160.62309479 -17.65699768 161.56123352 C-18.95215309 163.91311449 -20.22879101 165.98103904 -22 168 C-24.5625 168.375 -24.5625 168.375 -27 168 C-27.66 167.34 -28.32 166.68 -29 166 C-28.7090992 160.29348857 -26.83557739 155.70066583 -24.52734375 150.578125 C-24.17279617 149.77314575 -23.8182486 148.9681665 -23.45295715 148.13879395 C-22.28996559 145.50518271 -21.11416883 142.8775256 -19.9375 140.25 C-19.11897893 138.4067918 -18.30095128 136.56336442 -17.48339844 134.71972656 C-15.00404091 129.13966975 -12.50489273 123.56863281 -10 118 C-9.4455722 116.76612549 -9.4455722 116.76612549 -8.87994385 115.50732422 C-1.06352851 98.12150331 6.96600302 80.85398466 15.31396484 63.71704102 C19.43656305 55.23690603 23.35698131 46.69667996 27 38 C14.83313744 43.64062833 2.87222584 49.56041089 -8.93798828 55.91455078 C-10.76960898 56.87872147 -12.6311765 57.78551628 -14.49609375 58.68359375 C-15.46675781 59.15925781 -16.43742188 59.63492188 -17.4375 60.125 C-18.24058594 60.49882812 -19.04367187 60.87265625 -19.87109375 61.2578125 C-26.13844589 66.3866915 -28.20259283 76.69156813 -30.91537476 84.13720703 C-55.84204028 152.34490267 -55.84204028 152.34490267 -84.78125 167.59765625 C-102.97204827 175.52301618 -125.3963054 175.85958146 -144 169 C-151.94622725 165.60426003 -158.96964413 161.13842952 -163.4375 153.5625 C-164.76585105 147.511123 -164.83039121 143.74898615 -161.5 138.5 C-150.06919353 123.03943918 -133.1026947 113.14581395 -116.76171875 103.62451172 C-113.88699975 101.93353044 -111.03545515 100.20830574 -108.1875 98.47265625 C-97.00117494 91.6634712 -85.71825407 85.07035254 -74.25 78.75 C-73.33702652 78.24678223 -73.33702652 78.24678223 -72.40560913 77.73339844 C-66.17701997 74.30776266 -59.92364066 70.93851548 -53.6015625 67.6875 C-52.62799805 67.18637695 -51.65443359 66.68525391 -50.65136719 66.16894531 C-48.85755454 65.25216382 -47.05899612 64.34458324 -45.25488281 63.44824219 C-44.07297363 62.84737793 -44.07297363 62.84737793 -42.8671875 62.234375 C-42.18769043 61.89631836 -41.50819336 61.55826172 -40.80810547 61.20996094 C-37.68663652 59.12111404 -36.2162443 56.86497719 -35.3125 53.25 C-35.1578125 52.13625 -35.1578125 52.13625 -35 51 C-36.95869403 51.81163009 -38.91694436 52.62433101 -40.875 53.4375 C-42.51082031 54.11619141 -42.51082031 54.11619141 -44.1796875 54.80859375 C-45.80558624 55.49543463 -47.42131774 56.21065887 -49 57 C-50.93359586 57.14851844 -52.87342097 57.22130833 -54.8125 57.25 C-55.85019531 57.27578125 -56.88789063 57.3015625 -57.95703125 57.328125 C-61.41274692 56.95549327 -63.21826806 56.04481699 -66 54 C-70.03572303 48.57264834 -69.58122214 42.45893332 -69 36 C-67.29902135 25.74815568 -61.49767986 16.17910503 -53.44921875 9.6328125 C-45.40898505 4.2726567 -37.03397358 -0.17522932 -27.24609375 -0.0625 C-26.14458984 -0.05476563 -25.04308594 -0.04703125 -23.90820312 -0.0390625 C-22.76287109 -0.02617187 -21.61753906 -0.01328125 -20.4375 0 C-18.16541201 0.02548612 -15.89326853 0.04652689 -13.62109375 0.0625 C-12.6148999 0.07410156 -11.60870605 0.08570313 -10.57202148 0.09765625 C-1.00871008 -0.26545002 -1.00871008 -0.26545002 0 0 Z " fill="#5574FE" transform="translate(405,291)"/>
<path d="M0 0 C0 55.44 0 110.88 0 168 C-37.29 168 -74.58 168 -113 168 C-113.2475 156.223125 -113.495 144.44625 -113.75 132.3125 C-113.85924805 128.61973877 -113.96849609 124.92697754 -114.08105469 121.12231445 C-114.13525391 116.54724121 -114.13525391 116.54724121 -114.14532471 114.39274597 C-114.16353093 112.9153735 -114.20527847 111.43815862 -114.26690674 109.96195984 C-114.58880557 101.83163956 -114.40217999 95.78796047 -108.88103104 89.44483471 C-106.84017728 87.3285019 -104.73044101 85.32406897 -102.52973175 83.37502098 C-100.1510198 81.23688216 -97.96818711 78.92847474 -95.75 76.625 C-92.3339495 73.24690562 -88.83404085 70.02395345 -85.18359375 66.90234375 C-82.99209941 64.99311701 -80.85671069 63.02993459 -78.7265625 61.05273438 C-73.59843563 56.29555069 -68.35874622 51.76206593 -62.90625 47.375 C-60.19827667 45.16203255 -57.54776383 42.89823402 -54.90625 40.60717773 C-47.80768014 34.45138669 -40.51344248 28.64139921 -33 23 C-31.71865516 22.03267769 -30.43740894 21.06522475 -29.15625 20.09765625 C-25.79952876 17.56702869 -22.43366115 15.04895064 -19.0625 12.53759766 C-17.66015324 11.49214549 -16.25915944 10.44487654 -14.859375 9.39599609 C-12.78483262 7.84245535 -10.70559622 6.29541979 -8.625 4.75 C-7.98836426 4.27183838 -7.35172852 3.79367676 -6.69580078 3.30102539 C-2.22873546 0 -2.22873546 0 0 0 Z " fill="#555555" transform="translate(559,450)"/>
<path d="M0 0 C1.41980164 -0.00087616 1.41980164 -0.00087616 2.86828613 -0.00177002 C6.00151049 0.00101999 9.13378725 0.03215569 12.2668457 0.06347656 C14.43731669 0.07093568 16.60779441 0.07663016 18.77827454 0.08062744 C24.49458365 0.09590961 30.21048707 0.13521398 35.92663574 0.17944336 C42.78312038 0.22752897 49.63974057 0.24591774 56.49634552 0.26925659 C66.91622161 0.30806308 77.3352073 0.38469969 87.75512695 0.45410156 C87.75512695 30.81410156 87.75512695 61.17410156 87.75512695 92.45410156 C83.79512695 93.44410156 79.83512695 94.43410156 75.75512695 95.45410156 C71.725258 97.12390946 71.725258 97.12390946 68.19262695 99.14160156 C67.24649536 99.65726685 67.24649536 99.65726685 66.28125 100.18334961 C62.28138002 102.4184666 58.68452791 104.94187488 55.06762695 107.76660156 C48.39789236 112.83360889 40.1720831 115.34009695 31.75512695 114.45410156 C30.1730957 112.84472656 30.1730957 112.84472656 28.94262695 110.70410156 C25.6155283 105.89260505 22.4782947 103.75297651 16.75512695 102.45410156 C8.7106154 101.6155857 1.58961384 101.63061161 -5.6081543 105.57910156 C-7.24487305 106.45410156 -7.24487305 106.45410156 -9.24487305 106.45410156 C-9.47174805 105.85597656 -9.69862305 105.25785156 -9.93237305 104.64160156 C-11.6947814 101.7042543 -13.10620847 100.85648361 -16.24487305 99.45410156 C-19.21487305 99.12410156 -22.18487305 98.79410156 -25.24487305 98.45410156 C-25.24487305 70.73410156 -25.24487305 43.01410156 -25.24487305 14.45410156 C-22.60487305 13.13410156 -19.96487305 11.81410156 -17.24487305 10.45410156 C-14.79762261 7.8437011 -12.76294785 5.51045247 -11.18595886 2.29498291 C-7.96696374 -0.75783836 -4.26497671 -0.06843631 0 0 Z " fill="#555555" transform="translate(471.244873046875,194.5458984375)"/>
<path d="M0 0 C5.39163085 4.74138392 8.94439871 11.47533283 9.55078125 18.6328125 C10.39671867 45.52657294 -5.87471906 74.04094613 -19.16796875 96.42578125 C-19.65998779 97.25779053 -20.15200684 98.0897998 -20.65893555 98.94702148 C-21.125979 99.71087158 -21.59302246 100.47472168 -22.07421875 101.26171875 C-22.68233398 102.25631104 -22.68233398 102.25631104 -23.30273438 103.27099609 C-25.60396827 106.27099522 -27.622517 107.91148754 -31.39453125 108.4140625 C-32.82925781 108.38892578 -32.82925781 108.38892578 -34.29296875 108.36328125 C-35.73542969 108.35748047 -35.73542969 108.35748047 -37.20703125 108.3515625 C-39.66796875 108.05078125 -39.66796875 108.05078125 -41.66796875 106.05078125 C-41.38736 101.52897166 -39.12547712 98.09177824 -36.85546875 94.30078125 C-14.10645983 56.49021564 -14.10645983 56.49021564 -10.3046875 14.5234375 C-11.07427296 12.12297543 -11.07427296 12.12297543 -12.66796875 9.05078125 C-12.95671875 8.26703125 -13.24546875 7.48328125 -13.54296875 6.67578125 C-15.19971992 4.28269622 -16.91372948 3.94890275 -19.66796875 3.05078125 C-21.02345069 2.53338059 -22.37753962 2.01232084 -23.73046875 1.48828125 C-65.54145979 -14.49096879 -127.66052278 17.99015024 -165.61053467 34.91723633 C-191.18032233 46.38385518 -215.92851164 59.15521585 -240.02001953 73.48291016 C-242.36136088 74.86923637 -244.71160558 76.23726152 -247.0703125 77.59375 C-265.87820791 88.43528684 -284.12852166 100.26048939 -301.66796875 113.05078125 C-302.4170752 113.59412109 -303.16618164 114.13746094 -303.93798828 114.69726562 C-319.25302929 125.81818549 -334.36235579 137.20121097 -348.72265625 149.5390625 C-351.52175954 151.92609621 -354.36481966 154.24438276 -357.23046875 156.55078125 C-362.30836314 160.6811968 -367.11360728 165.05909893 -371.91015625 169.5078125 C-374.07137423 171.50066364 -376.25143844 173.4478591 -378.48046875 175.36328125 C-401.4912328 195.40182161 -435.95455874 226.47461217 -438.94140625 259.03125 C-439.18808146 266.8204941 -438.41185392 272.70251642 -433.66796875 279.05078125 C-431.22487896 281.51012219 -428.64919681 283.29587395 -425.66796875 285.05078125 C-424.9615625 285.47875 -424.25515625 285.90671875 -423.52734375 286.34765625 C-418.44744405 289.14678465 -413.12661651 291.02888675 -407.60546875 292.73828125 C-406.66199585 293.04197632 -406.66199585 293.04197632 -405.69946289 293.35180664 C-390.38872904 297.82621893 -373.89799882 297.43338252 -358.10546875 297.67578125 C-356.01495977 297.71407669 -353.9244646 297.75313453 -351.83398438 297.79296875 C-346.77876163 297.88767024 -341.72346584 297.97214374 -336.66796875 298.05078125 C-337.54296875 304.80078125 -337.54296875 304.80078125 -338.66796875 307.05078125 C-344.33813165 307.07587559 -350.00826081 307.09382367 -355.6784668 307.10571289 C-357.59937098 307.11067978 -359.52027151 307.11745555 -361.44116211 307.1262207 C-394.41911381 307.27271278 -394.41911381 307.27271278 -407.04296875 304.42578125 C-407.81624512 304.2561084 -408.58952148 304.08643555 -409.38623047 303.91162109 C-421.71146614 301.04210946 -434.72914498 297.13290168 -444.66796875 289.05078125 C-445.28542969 288.61507813 -445.90289062 288.179375 -446.5390625 287.73046875 C-452.58185933 283.18212705 -456.76402955 276.38307522 -458.30859375 268.98046875 C-458.4271875 268.01367188 -458.54578125 267.046875 -458.66796875 266.05078125 C-458.75820313 265.32117188 -458.8484375 264.5915625 -458.94140625 263.83984375 C-459.91187186 243.1614611 -445.81205555 224.37456332 -433.66796875 209.05078125 C-432.91644531 208.08527344 -432.16492188 207.11976563 -431.390625 206.125 C-420.06400635 191.88763019 -407.02890504 179.34570351 -393.66796875 167.05078125 C-392.62213078 166.07971247 -391.57653032 165.10838778 -390.53125 164.13671875 C-385.36641593 159.37711417 -380.0609543 154.85700722 -374.59375 150.44921875 C-371.94525393 148.27808846 -369.35574036 146.05712274 -366.77441406 143.80761719 C-358.98821173 137.0314693 -350.8812206 130.75405842 -342.63867188 124.54541016 C-340.88062082 123.21206172 -339.1374873 121.86294121 -337.40234375 120.5 C-299.49639456 90.80700647 -257.5427129 65.79052494 -214.66796875 44.05078125 C-213.90838867 43.66341797 -213.14880859 43.27605469 -212.36621094 42.87695312 C-208.49308121 40.90312915 -204.60704629 38.95857819 -200.70263672 37.04736328 C-199.27561347 36.34840613 -197.85029933 35.64595385 -196.42626953 34.94091797 C-147.92333229 10.98307476 -50.58483784 -36.95729734 0 0 Z " fill="#5573FE" transform="translate(475.66796875,91.94921875)"/>
<path d="M0 0 C0.33 0 0.66 0 1 0 C1.00386719 0.94359375 1.00386719 0.94359375 1.0078125 1.90625 C1.31808349 8.77358115 2.86949868 13.28762324 8 18 C15.9900036 22.64872937 26.06922511 22.26533123 34.8359375 20.015625 C40.91031959 17.91743758 46.59179655 15.47670222 52 12 C53.49739583 13.26953125 54.99479167 14.5390625 56.4921875 15.80859375 C58.00594079 17.0878152 58.00594079 17.0878152 60 18 C60.4074862 25.64787375 60.68653736 33.29293673 60.87890625 40.94921875 C60.95911597 43.549566 61.06812857 46.14919705 61.20703125 48.74707031 C62.30155633 69.75229423 62.30155633 69.75229423 58.50482178 75.10983276 C54.78579812 78.49284269 50.55264617 80.46250515 45.89147949 82.24511719 C43.54667239 83.18092146 41.60535948 84.44100095 39.5703125 85.92578125 C38.99297363 86.3225708 38.41563477 86.71936035 37.82080078 87.12817383 C37.26118652 87.51900146 36.70157227 87.9098291 36.125 88.3125 C35.47901855 88.76069092 34.83303711 89.20888184 34.16748047 89.6706543 C32.10652488 91.10662252 30.05201754 92.55129099 28 94 C27.28585937 94.50402344 26.57171875 95.00804687 25.8359375 95.52734375 C-0.07345363 113.88364383 -27.79533731 133.57366003 -49.6796875 156.78125 C-51 158 -51 158 -53 158 C-53 115.76 -53 73.52 -53 30 C-46.07 28.35 -39.14 26.7 -32 25 C-18.22774038 20.10891714 -7.28332308 12.94812993 0 0 Z " fill="#555555" transform="translate(499,339)"/>
<path d="M0 0 C1.50427687 12.98692361 1.50427687 12.98692361 -1.59375 17.1328125 C-4.29961759 18.97687979 -7.10696304 20.46423184 -10 22 C-12.89260539 23.83885517 -15.72397193 25.76654334 -18.5625 27.6875 C-20.14035154 28.73869183 -21.71847964 29.78946866 -23.296875 30.83984375 C-37.96186042 40.66154058 -52.03760945 51.20841963 -66 62 C-66.68787598 62.53044922 -67.37575195 63.06089844 -68.08447266 63.60742188 C-76.01610527 69.73465384 -83.74723492 76.06350523 -91.35253906 82.59082031 C-93.0280879 84.02402539 -94.71226974 85.44649738 -96.3984375 86.8671875 C-103.98106023 93.27798923 -111.29317987 99.92936385 -118.51953125 106.73828125 C-121.4512535 109.49778375 -124.4294441 112.19861336 -127.4375 114.875 C-135.39652947 122.01973933 -142.43995122 129.54539425 -149 138 C-149.80195801 139.02794678 -149.80195801 139.02794678 -150.62011719 140.07666016 C-162.78884818 155.78581848 -175.9937419 173.03388033 -175.40625 193.81640625 C-174.53136584 200.67246959 -171.72301622 205.9884769 -166.3125 210.3125 C-164.89836578 211.24478108 -163.45966912 212.14076215 -162 213 C-161.29359375 213.42796875 -160.5871875 213.8559375 -159.859375 214.296875 C-154.7794753 217.0960034 -149.45864776 218.9781055 -143.9375 220.6875 C-143.30851807 220.88996338 -142.67953613 221.09242676 -142.03149414 221.30102539 C-125.84674685 226.03085957 -108.48619782 225.36655611 -91.8125 225.3125 C-89.97412064 225.30876877 -89.97412064 225.30876877 -88.09860229 225.30496216 C-27.18807141 225.11526805 32.11316932 217.63558857 90.75976562 201.05102539 C98.15013499 199.03708836 105.32829073 197.61295496 113 199 C113.99 199.66 114.98 200.32 116 201 C115.67 202.32 115.34 203.64 115 205 C35.77667914 226.32519803 -61.30101792 250.88958638 -143.375 232.375 C-144.14972656 232.20460205 -144.92445313 232.0342041 -145.72265625 231.85864258 C-162.10768478 228.03777793 -179.93595786 222.34194562 -190 208 C-192.77536322 203.49321752 -194.57383026 199.32712178 -195 194 C-195.07476562 193.3296875 -195.14953125 192.659375 -195.2265625 191.96875 C-196.53339139 171.33460964 -182.08003886 152.2429644 -170 137 C-169.24847656 136.03449219 -168.49695313 135.06898438 -167.72265625 134.07421875 C-156.3960376 119.83684894 -143.36093629 107.29492226 -130 95 C-128.95416203 94.02893122 -127.90856157 93.05760653 -126.86328125 92.0859375 C-121.69844718 87.32633292 -116.39298555 82.80622597 -110.92578125 78.3984375 C-108.27728518 76.22730721 -105.68777161 74.00634149 -103.10644531 71.75683594 C-95.32024298 64.98068805 -87.21325185 58.70327717 -78.97070312 52.49462891 C-77.21265207 51.16128047 -75.46951855 49.81215996 -73.734375 48.44921875 C-53.89296051 32.9067774 -32.68772055 18.95260336 -11.3125 5.625 C-10.40894775 5.059021 -9.50539551 4.49304199 -8.57446289 3.90991211 C-7.74164795 3.39565674 -6.90883301 2.88140137 -6.05078125 2.3515625 C-5.31512939 1.89604004 -4.57947754 1.44051758 -3.8215332 0.97119141 C-2 0 -2 0 0 0 Z " fill="#5573FE" transform="translate(584,407)"/>
<path d="M0 0 C2.48624078 2.77893141 3.67577562 5.44986966 4.79345703 8.98046875 C5.11033478 9.96829346 5.42721252 10.95611816 5.75369263 11.97387695 C6.08505219 13.03437256 6.41641174 14.09486816 6.7578125 15.1875 C7.2805928 16.82948364 7.2805928 16.82948364 7.81393433 18.50463867 C8.9249477 22.00081847 10.0249352 25.50036179 11.125 29 C11.87300917 31.35698952 12.62169925 33.71376307 13.37109375 36.0703125 C14.73982296 40.3854679 16.10755364 44.70091629 17.46533203 49.01953125 C17.73830109 49.88682861 18.01127014 50.75412598 18.29251099 51.64770508 C19.67556918 56.24616626 20.52032988 60.14358776 20 65 C15.65148728 69.74361889 9.55947878 71.05305435 3.6015625 72.890625 C2.49324066 73.24010193 1.38491882 73.58957886 0.24301147 73.949646 C-2.09704351 74.68440321 -4.43884018 75.41363333 -6.78222656 76.13769531 C-10.35995417 77.24534189 -13.93009436 78.37524321 -17.5 79.5078125 C-19.77822511 80.22009706 -22.05685821 80.93107828 -24.3359375 81.640625 C-25.39968597 81.97805725 -26.46343445 82.3154895 -27.55941772 82.66314697 C-37.57530942 85.72878332 -37.57530942 85.72878332 -43 85 C-49.4315362 80.68516095 -51.03286944 68.80101738 -52.9375 61.75 C-54.97619068 54.39357841 -57.26084503 47.24997899 -59.8984375 40.0859375 C-64.99274514 25.81465013 -64.99274514 25.81465013 -64 20 C-60.51287969 15.09513476 -55.05746064 14.07428267 -49.57421875 12.3984375 C-48.55326614 12.07589996 -47.53231354 11.75336243 -46.48042297 11.42105103 C-43.21964059 10.394043 -39.95375727 9.38444358 -36.6875 8.375 C-34.50030033 7.68861656 -32.31344697 7.00112855 -30.12695312 6.3125 C-24.42402129 4.52160358 -18.71816166 2.74171102 -13 1 C-11.95412216 0.67554901 -11.95412216 0.67554901 -10.88711548 0.34454346 C-6.8429011 -0.87459165 -4.0977548 -1.30383107 0 0 Z " fill="#498CFE" transform="translate(1290,345)"/>
<path d="M0 0 C0.34212607 5.86279676 -0.76759336 10.37663734 -2.75 15.875 C-3.05655518 16.7314209 -3.36311035 17.5878418 -3.67895508 18.47021484 C-13.46446051 44.88423651 -27.09035952 74.55632094 -53.1015625 88.09375 C-64.99062129 93.0513498 -82.12387001 90.56350513 -93.65625 85.93359375 C-98.74965863 83.36142239 -103.19617443 80.06158773 -106 75 C-107.08529267 71.32329423 -106.72890891 68.50337463 -105.0625 65.06640625 C-86.84666265 38.12214683 -44.24737538 21.64949578 -16.63183594 6.46728516 C-14.89796406 5.50062746 -13.17662239 4.51108975 -11.46972656 3.49755859 C-10.68823242 3.03816895 -9.90673828 2.5787793 -9.1015625 2.10546875 C-8.42689941 1.6983667 -7.75223633 1.29126465 -7.05712891 0.87182617 C-4.58613025 -0.17540101 -2.65723274 -0.15584858 0 0 Z " fill="#F1F2F9" transform="translate(362,364)"/>
<path d="M0 0 C12.4678125 -0.1546875 12.4678125 -0.1546875 25.1875 -0.3125 C27.78391357 -0.35802002 30.38032715 -0.40354004 33.05541992 -0.45043945 C47.57112913 -0.59953955 60.36840968 -0.5481066 71.41796875 10.17578125 C77.67104412 17.38611754 79.48968432 25.3268923 79.30859375 34.6796875 C78.58642312 42.44987779 75.63442536 48.36847175 69.8515625 53.59765625 C61.3910319 60.00552648 50.69340586 59.14433731 40.625 59.09765625 C39.59117188 59.09664917 38.55734375 59.09564209 37.4921875 59.09460449 C33.66144691 59.08940579 29.83072224 59.07544473 26 59.0625 C17.42 59.041875 8.84 59.02125 0 59 C0 39.53 0 20.06 0 0 Z " fill="#EBECF1" transform="translate(1023,298)"/>
<path d="M0 0 C5.39163085 4.74138392 8.94439871 11.47533283 9.55078125 18.6328125 C10.39671867 45.52657294 -5.87471906 74.04094613 -19.16796875 96.42578125 C-19.65998779 97.25779053 -20.15200684 98.0897998 -20.65893555 98.94702148 C-21.125979 99.71087158 -21.59302246 100.47472168 -22.07421875 101.26171875 C-22.47962891 101.92478027 -22.88503906 102.5878418 -23.30273438 103.27099609 C-25.60396827 106.27099522 -27.622517 107.91148754 -31.39453125 108.4140625 C-32.82925781 108.38892578 -32.82925781 108.38892578 -34.29296875 108.36328125 C-35.73542969 108.35748047 -35.73542969 108.35748047 -37.20703125 108.3515625 C-39.66796875 108.05078125 -39.66796875 108.05078125 -41.66796875 106.05078125 C-41.38736 101.52897166 -39.12547712 98.09177824 -36.85546875 94.30078125 C-14.10645983 56.49021564 -14.10645983 56.49021564 -10.3046875 14.5234375 C-11.07427296 12.12297543 -11.07427296 12.12297543 -12.66796875 9.05078125 C-12.95671875 8.26703125 -13.24546875 7.48328125 -13.54296875 6.67578125 C-15.19971992 4.28269622 -16.91372948 3.94890275 -19.66796875 3.05078125 C-21.02345069 2.53338059 -22.37753962 2.01232084 -23.73046875 1.48828125 C-59.19617559 -12.06593938 -112.55895769 12.32963806 -145.2109375 26.08984375 C-147.66796875 27.05078125 -147.66796875 27.05078125 -149.66796875 27.05078125 C-149.66796875 23.09078125 -149.66796875 19.13078125 -149.66796875 15.05078125 C-140.46232725 11.08084835 -131.17567777 7.69858914 -121.66796875 4.55078125 C-120.94186401 4.30955536 -120.21575928 4.06832947 -119.46765137 3.8197937 C-84.6713061 -7.70397534 -32.68124611 -23.87692798 0 0 Z " fill="#5573FE" transform="translate(847.66796875,334.94921875)"/>
<path d="M0 0 C3 1 3 1 4.140625 2.92578125 C4.50671875 3.71339844 4.8728125 4.50101563 5.25 5.3125 C8.14742726 10.81848716 11.16973003 12.51731485 16.9375 14.75 C28.00241799 16.09120218 37.82670245 13.01639099 47.52734375 7.79296875 C50.78812704 6.74725152 51.99190443 7.47947595 55 9 C62.55628211 12.53885879 71.77044722 12.11280686 79.7265625 10.01953125 C85.29546552 7.93919391 90.20717949 5.49746362 95 2 C95.66 2 96.32 2 97 2 C97.556875 2.598125 98.11375 3.19625 98.6875 3.8125 C104.01510359 8.85212502 109.22229477 9.42782709 116.29296875 9.234375 C121.22093666 8.80771111 125.7745099 7.37202378 130.5 5.9375 C135.32141567 6.02359671 137.1325572 8.17217596 140.49609375 11.43359375 C140.99238281 11.95050781 141.48867187 12.46742188 142 13 C127.17414656 27.82585344 84.63801403 26.08090877 64.77436721 26.12495506 C62.53584139 26.12440461 60.29735657 26.11903266 58.05883789 26.11352539 C56.4211782 26.1132425 54.78351838 26.11340325 53.14585876 26.1139679 C48.75018159 26.11425188 44.35453234 26.1084203 39.95886159 26.10139394 C35.34647216 26.09509336 30.73408191 26.09455134 26.12168884 26.09336853 C17.40985433 26.09027482 8.69803255 26.08208815 -0.01379639 26.07201904 C-9.94140222 26.06079665 -19.86900869 26.05533209 -29.7966193 26.05032361 C-50.19775327 26.03990366 -70.59887583 26.02234261 -91 26 C-91 23.03 -91 20.06 -91 17 C-89.68 17.33 -88.36 17.66 -87 18 C-75.12110309 18.97276006 -64.65831583 15.60590597 -55.50390625 7.8984375 C-53.93386738 6.4766103 -52.380148 5.03643751 -50.84765625 3.57421875 C-49 2 -49 2 -47 2 C-45.84420643 3.44474196 -44.69141547 4.89375594 -43.609375 6.39453125 C-39.30591549 10.68754547 -34.62740004 11.43135209 -28.75 11.4375 C-18.04080981 11.30278498 -10.9856902 7.32094928 -2.34765625 1.29296875 C-1.57292969 0.86628906 -0.79820312 0.43960938 0 0 Z " fill="#565656" transform="translate(1005,592)"/>
<path d="M0 0 C0.65064011 21.37352755 1.30664023 45.9228154 -13.9375 62.8125 C-15.62483229 64.54183032 -17.31231312 66.27101573 -19 68 C-19.9278969 69.17874567 -20.84633612 70.36507542 -21.75 71.5625 C-29.7958517 81.02551876 -42.63554595 88.69847852 -55 90 C-54.24707279 79.08255544 -51.14101926 68.94394627 -46.41796875 59.10546875 C-44.61240282 55.15113013 -43.05629441 51.12017634 -41.5 47.0625 C-38.78155433 39.99001417 -35.94831069 32.98027199 -33 26 C-32.16652811 23.97922381 -31.33319654 21.95838974 -30.5 19.9375 C-27.84172821 13.55260035 -25.09395675 7.1879135 -22 1 C-19.40892346 0.68321325 -16.91371868 0.48559211 -14.3125 0.375 C-13.24999023 0.31699219 -13.24999023 0.31699219 -12.16601562 0.2578125 C-8.10736435 0.04794688 -4.06505342 -0.03840995 0 0 Z " fill="#565656" transform="translate(1223,491)"/>
<path d="M0 0 C-6.73660942 21.97893785 -19.5566738 49.60983849 -40.28125 61.28515625 C-49.19571832 65.34344044 -58.52425954 63.90338665 -68 63 C-70.30232826 59.1961533 -70.87840421 55.06197163 -71.625 50.75 C-71.7590625 50.00492187 -71.893125 49.25984375 -72.03125 48.4921875 C-72.35966676 46.662437 -72.6805798 44.83134246 -73 43 C-56.92747605 30.71986934 -39.29911827 20.67109647 -21.79394531 10.60693359 C-19.20019365 9.11514109 -16.61161294 7.61471771 -14.0234375 6.11328125 C-12.57860554 5.28301737 -11.13332843 4.4535274 -9.6875 3.625 C-9.04208252 3.24964111 -8.39666504 2.87428223 -7.73168945 2.48754883 C-4.92296878 0.8944914 -3.28785755 0 0 0 Z " fill="#565656" transform="translate(348,381)"/>
<path d="M0 0 C0.66 0 1.32 0 2 0 C2.556875 0.598125 3.11375 1.19625 3.6875 1.8125 C8.87252266 6.71725116 14.04168049 7.48811134 20.9453125 7.296875 C27.5087195 6.65899913 34.45822061 5.69451959 40 2 C40.99 2 41.98 2 43 2 C43.680625 3.60875 43.680625 3.60875 44.375 5.25 C46.79213277 9.43121564 49.71601438 10.79081726 54.18359375 12.35546875 C58.80198307 13.4123817 63.29537383 13.32198962 68 13 C63.22297792 16.89615276 57.68347717 18.75853098 52 21 C51.11957031 21.36480469 50.23914063 21.72960937 49.33203125 22.10546875 C42.18503346 24.9275057 34.90262605 26.39736477 27.34106445 27.61889648 C25.5869138 27.90445589 23.83587682 28.20925536 22.08666992 28.52368164 C14.02077473 29.90129231 6.23583158 30.27861476 -1.9375 30.1875 C-3.1637207 30.17960449 -4.38994141 30.17170898 -5.65332031 30.16357422 C-28.16336902 29.95098929 -28.16336902 29.95098929 -38 27 C-37.21625 26.4225 -36.4325 25.845 -35.625 25.25 C-32.51862161 22.58738995 -31.14493173 20.75077524 -30.8046875 16.640625 C-30.82789063 15.85171875 -30.85109375 15.0628125 -30.875 14.25 C-30.89304687 13.45078125 -30.91109375 12.6515625 -30.9296875 11.828125 C-30.95289063 11.22484375 -30.97609375 10.6215625 -31 10 C-30.00742187 9.93683594 -29.01484375 9.87367188 -27.9921875 9.80859375 C-18.42219699 9.01139068 -7.15496806 7.15496806 0 0 Z " fill="#575757" transform="translate(739,594)"/>
<path d="M0 0 C1.0725 0.2475 2.145 0.495 3.25 0.75 C3.91 3.06 4.57 5.37 5.25 7.75 C6.36117188 7.3890625 7.47234375 7.028125 8.6171875 6.65625 C26.28020097 1.07845627 26.28020097 1.07845627 35.375 3.625 C38.0819374 6.69286238 37.81882194 9.25297135 37.609375 13.23828125 C37.1281014 16.60196519 36.19826681 18.9667617 34.25 21.75 C31.00724959 24.12801697 29.56968475 23.75 25.25 23.75 C25.25 20.12 25.25 16.49 25.25 12.75 C16.7973598 12.11446314 9.14360405 17.24598208 2.625 22.3125 C-5.84580611 30.19911258 -12.47109253 40.60513044 -19.22167969 49.95092773 C-20.96537393 52.3600131 -22.64320598 54.64320598 -24.75 56.75 C-28.25 57 -28.25 57 -31.75 56.75 C-32.41 56.09 -33.07 55.43 -33.75 54.75 C-33.38528071 51.10814821 -32.17117704 48.25604432 -30.484375 45.0390625 C-30.01257812 44.13454346 -29.54078125 43.23002441 -29.0546875 42.2980957 C-28.54164062 41.33347412 -28.02859375 40.36885254 -27.5 39.375 C-26.97148438 38.37364014 -26.44296875 37.37228027 -25.8984375 36.34057617 C-21.9309103 28.8694477 -17.87569725 21.44737986 -13.75 14.0625 C-13.21084961 13.08941895 -12.67169922 12.11633789 -12.11621094 11.11376953 C-11.60348633 10.2061084 -11.09076172 9.29844727 -10.5625 8.36328125 C-9.89154297 7.16892456 -9.89154297 7.16892456 -9.20703125 5.95043945 C-5.04424849 -0.33628323 -5.04424849 -0.33628323 0 0 Z " fill="#5674FE" transform="translate(1291.75,538.25)"/>
<path d="M0 0 C1.98106068 1.50066491 2.84978341 2.47750753 3.5390625 4.875 C3.89060334 13.56764615 -0.88141982 19.44673928 -6.41015625 25.74609375 C-13.07138001 32.67500193 -19.13469559 38.38341847 -29 39 C-31.69442215 34.95836678 -31.76098933 31.66191659 -31 27 C-27.24668043 16.38224426 -19.91551378 6.37459977 -9.984375 0.7734375 C-6.42054911 -0.61561275 -3.79358802 -0.51438482 0 0 Z " fill="#F4F5FC" transform="translate(380,300)"/>
<path d="M0 0 C1.485 0.99 1.485 0.99 3 2 C3.83957517 7.9969655 2.22590276 12.09771519 -1 17 C-6.69777109 24.52559589 -13.50289311 30.97933896 -23 33 C-29.53571429 32.46428571 -29.53571429 32.46428571 -31 31 C-32.04973769 23.6784118 -30.97086815 18.40688486 -26.83984375 12.29296875 C-19.79900127 3.51807589 -11.52601692 -1.5515792 0 0 Z " fill="#F3F5FC" transform="translate(1252,554)"/>
<path d="M0 0 C0.99 0.66 1.98 1.32 3 2 C2.67 3.32 2.34 4.64 2 6 C-18.6929568 11.56242431 -39.39278833 17.03625 -60.3125 21.6875 C-61.07776001 21.85934814 -61.84302002 22.03119629 -62.63146973 22.20825195 C-64.79065024 22.69118504 -66.95144823 23.16581792 -69.11328125 23.63671875 C-70.93533081 24.03443481 -70.93533081 24.03443481 -72.79418945 24.44018555 C-75.61993897 24.93363187 -78.14266402 25.11763717 -81 25 C-80.34 22.03 -79.68 19.06 -79 16 C-77.8126123 15.72849121 -76.62522461 15.45698242 -75.40185547 15.17724609 C-70.89272295 14.14476896 -66.38473413 13.10738304 -61.87728882 12.06756592 C-59.87940622 11.60669574 -57.88138002 11.14644764 -55.88320923 10.68682861 C-44.90382867 8.15724071 -33.99729025 5.55996469 -23.1875 2.375 C-15.45661719 0.13192769 -8.09098089 -1.27301364 0 0 Z " fill="#5574FE" transform="translate(325,363)"/>
<path d="M0 0 C2.52793912 2.52793912 2.35113422 4.37214165 2.55859375 7.83203125 C0.81353923 14.60479531 -8.1014469 18.514427 -13.5625 21.9375 C-15.03771118 22.8668335 -15.03771118 22.8668335 -16.54272461 23.81494141 C-35.13547509 35.41603181 -35.13547509 35.41603181 -42 35 C-36.3568751 19.40643747 -20.82355368 8.85201725 -7.10546875 0.84765625 C-4.56047224 -0.17695274 -2.72016474 -0.2922491 0 0 Z " fill="#F2F4FD" transform="translate(481,313)"/>
<path d="M0 0 C2.67760087 5.03610558 4.20592412 10.45907698 5.9375 15.875 C6.29650391 16.99511475 6.65550781 18.11522949 7.02539062 19.26928711 C9.49937438 27.11397184 11.60623899 34.88424578 13 43 C4.68485995 40.35158351 -0.49539716 37.8735084 -6.375 31.375 C-9.60486835 24.66681189 -8.61428606 18.07395227 -6.25 11.1875 C-4.59305479 7.0569723 -2.68167015 3.54363556 0 0 Z " fill="#5B5B5B" transform="translate(425,575)"/>
<path d="M0 0 C-4.75 3 -4.75 3 -7 3 C-7 3.66 -7 4.32 -7 5 C-8.6396875 5.7115625 -8.6396875 5.7115625 -10.3125 6.4375 C-20.45887689 11.51963587 -29.90771147 20.53412774 -37.65625 28.7578125 C-39 30 -39 30 -41 30 C-39.45015242 20.55816538 -37.24470469 11.2948209 -35 2 C-34.67 3.32 -34.34 4.64 -34 6 C-33.03126953 5.74476563 -33.03126953 5.74476563 -32.04296875 5.484375 C-25.37083332 3.76842225 -18.66866761 2.21582766 -11.9375 0.75 C-11.10436279 0.56276367 -10.27122559 0.37552734 -9.4128418 0.18261719 C-8.62562744 0.01407227 -7.83841309 -0.15447266 -7.02734375 -0.328125 C-6.32343506 -0.4818457 -5.61952637 -0.63556641 -4.89428711 -0.79394531 C-3 -1 -3 -1 0 0 Z " fill="#E9EAEF" transform="translate(277,392)"/>
<path d="M0 0 C0 0.99 0 1.98 0 3 C-0.66 3 -1.32 3 -2 3 C-2 12.9 -2 22.8 -2 33 C-6 35 -6 35 -8.08618164 34.82080078 C-10.37650006 33.83852619 -11.19196556 32.89364331 -12.62109375 30.8671875 C-13.31235352 29.90425781 -13.31235352 29.90425781 -14.01757812 28.921875 C-14.72043945 27.90867187 -14.72043945 27.90867187 -15.4375 26.875 C-15.90220703 26.22273438 -16.36691406 25.57046875 -16.84570312 24.8984375 C-18.71005802 22.27741974 -20.56234854 19.65151283 -22.35595703 16.98144531 C-24.91702227 13.06094588 -24.91702227 13.06094588 -29 11 C-29 10.01 -29 9.02 -29 8 C-27.73160474 7.49384702 -26.46016898 6.99530901 -25.1875 6.5 C-24.12595703 6.08234375 -24.12595703 6.08234375 -23.04296875 5.65625 C-21 5 -21 5 -18 5 C-18 6.32 -18 7.64 -18 9 C-18.99 9 -19.98 9 -21 9 C-16.71 15.27 -12.42 21.54 -8 28 C-8 20.74 -8 13.48 -8 6 C-8.99 6 -9.98 6 -11 6 C-11 4.68 -11 3.36 -11 2 C-7.17679443 0.57741188 -4.08718695 -0.24042276 0 0 Z " fill="#E1EAFD" transform="translate(1271,370)"/>
<path d="M0 0 C0.66 0 1.32 0 2 0 C3.00354037 4.29084682 4.00223371 8.58280716 5 12.875 C5.28617187 14.09832031 5.57234375 15.32164062 5.8671875 16.58203125 C6.13789063 17.74863281 6.40859375 18.91523438 6.6875 20.1171875 C6.93886719 21.19597168 7.19023437 22.27475586 7.44921875 23.38623047 C8 26 8 26 8 28 C8.66 28.33 9.32 28.66 10 29 C4.72 29.66 -0.56 30.32 -6 31 C-5.65066406 29.26492188 -5.30132812 27.52984375 -4.94140625 25.7421875 C-4.48171954 23.4531353 -4.02208696 21.16407223 -3.5625 18.875 C-3.33240234 17.73289062 -3.10230469 16.59078125 -2.86523438 15.4140625 C-2.64287109 14.30546875 -2.42050781 13.196875 -2.19140625 12.0546875 C-1.98717041 11.03874512 -1.78293457 10.02280273 -1.57250977 8.97607422 C-0.99826816 5.99099738 -0.4870317 3.0004282 0 0 Z " fill="#DFDFE4" transform="translate(254,338)"/>
<path d="M0 0 C1.01239398 2.49643739 1.82262692 4.86028998 2.5625 7.4375 C2.77865967 8.15873047 2.99481934 8.87996094 3.2175293 9.62304688 C4.8029875 15.02168585 6.10476367 20.44151769 7 26 C8.65 25.67 10.3 25.34 12 25 C12 26.32 12 27.64 12 29 C10.5882217 29.53394179 9.17029756 30.05165104 7.75 30.5625 C6.96109375 30.85253906 6.1721875 31.14257812 5.359375 31.44140625 C2.80896548 32.04522837 1.44677771 31.8473932 -1 31 C-0.67 30.01 -0.34 29.02 0 28 C0.99 28 1.98 28 3 28 C0.36 20.74 -2.28 13.48 -5 6 C-6.32 6 -7.64 6 -9 6 C-8.8125 4.1875 -8.8125 4.1875 -8 2 C-3.744 -1.248 -3.744 -1.248 0 0 Z " fill="#E3EBFD" transform="translate(1281,367)"/>
<path d="M0 0 C2.95183101 2.95183101 3.08663988 5.95511947 4 10 C1.36 10 -1.28 10 -4 10 C-3.43454163 6.04179141 -2.19097652 3.3340947 0 0 Z " fill="#656565" transform="translate(1216,457)"/>
<path d="M0 0 C1.32 0.33 2.64 0.66 4 1 C3.01 2.98 2.02 4.96 1 7 C0.01 7 -0.98 7 -2 7 C-2 3.89448334 -1.4606285 2.64738916 0 0 Z " fill="#E2E7FD" transform="translate(1265,570)"/>
<path d="M0 0 C-6.75 4 -6.75 4 -9 4 C-9 3.01 -9 2.02 -9 1 C-3.375 -1.125 -3.375 -1.125 0 0 Z " fill="#6F6F70" transform="translate(277,392)"/>
</svg>
